<svg width="441" height="468" viewBox="0 0 441 468" fill="none" xmlns="http://www.w3.org/2000/svg">
<path d="M410.5 299.809C410.051 299.034 409.777 298.169 409.698 297.276C409.619 296.384 409.737 295.485 410.043 294.642C410.349 293.8 410.837 293.035 411.47 292.402C412.104 291.768 412.869 291.281 413.712 290.975L413.396 269.193L422.938 275.288L421.775 295.038C422.195 296.487 422.069 298.04 421.421 299.402C420.773 300.765 419.647 301.842 418.257 302.43C416.867 303.018 415.31 303.076 413.881 302.593C412.451 302.11 411.248 301.12 410.5 299.809Z" fill="#FFB6B6"/>
<path d="M399.001 181.551C396.173 182.051 393.605 183.515 391.735 185.695C389.865 187.875 388.809 190.635 388.746 193.506C388.608 199.881 390.736 202.258 393.743 203.117C399.301 204.704 408.153 236.817 408.153 236.817C408.153 236.817 409.093 266.768 410.608 265.289C412.124 263.81 410.409 267.261 410.869 268.314C411.33 269.367 408.687 270.944 411.199 272.141C413.712 273.337 412.124 282.864 412.124 282.864L423.241 282.07C423.241 282.07 421.395 274.309 423.906 273.823C426.417 273.337 425.276 271.128 424.259 269.454C423.241 267.779 426.059 265.393 424.65 264.601C423.241 263.81 427.211 232.847 427.211 232.847L411.688 187.182C410.374 185.087 408.465 183.432 406.205 182.429C403.944 181.426 401.436 181.12 399.001 181.551Z" fill="#00BFA6"/>
<path d="M365.273 183.348L373.271 169.334H384.075L392.178 184.142L365.273 183.348Z" fill="#00BFA6"/>
<path d="M343.763 57.3252C337.373 35.9258 319.321 21.9557 297.508 18.8909C297.268 18.8571 297.04 18.9018 296.801 18.8864C296.492 18.792 296.177 18.7195 295.858 18.6693C265.859 14.793 233.112 21.7353 207.048 38.0398C182.065 53.6683 153.359 62.4867 123.889 62.2908C122.973 62.2847 122.055 62.3046 121.132 62.3503C98.4529 63.4817 78.4378 79.9873 72.3067 101.697C71.502 104.545 72.9042 107.091 75.1589 108.705C79.1207 111.542 81.827 113.53 86.7016 114.563C95.3994 116.405 104.127 118.099 112.884 119.645V84.769C112.888 81.4673 114.202 78.3019 116.537 75.9672C118.872 73.6325 122.038 72.3192 125.34 72.3154H296.438C299.741 72.3192 302.907 73.6325 305.242 75.9672C307.577 78.3019 308.891 81.4673 308.894 84.769V128.202C311.241 127.468 313.532 126.567 315.749 125.504C324.003 121.428 331.055 115.276 336.211 107.651C346.117 93.2813 348.733 73.9685 343.763 57.3252Z" fill="#F2F2F2"/>
<path d="M271.724 261.428H120.471C116.981 261.424 113.634 260.036 111.166 257.569C108.698 255.101 107.31 251.755 107.306 248.266V189.587C88.8834 183.949 69.4805 182.249 50.3579 184.597C50.0389 184.647 49.7237 184.72 49.4149 184.814C49.176 184.829 48.9482 184.785 48.7082 184.819C26.8947 187.883 8.8424 201.853 2.45254 223.253C-2.51748 239.896 0.0988236 259.209 10.0046 273.579C15.1612 281.203 22.2128 287.356 30.4666 291.432C41.8118 296.896 53.7531 297.306 66.1357 297.692C103.314 298.852 140.528 297.446 177.513 293.483C195.714 291.531 213.84 288.981 231.89 285.831C241.129 284.215 250.337 282.434 259.514 280.49C264.389 279.458 267.095 277.469 271.057 274.632C273.312 273.018 274.714 270.473 273.909 267.625C273.311 265.515 272.581 263.446 271.724 261.428Z" fill="#F2F2F2"/>
<path d="M285.109 244.02H136.669C133.804 244.017 131.057 242.877 129.031 240.852C127.005 238.826 125.866 236.08 125.862 233.216V95.2949C125.866 92.4305 127.005 89.6843 129.031 87.6588C131.057 85.6333 133.804 84.4939 136.669 84.4906H285.109C287.974 84.4939 290.721 85.6333 292.747 87.6588C294.773 89.6843 295.912 92.4305 295.916 95.2949V233.216C295.912 236.08 294.773 238.826 292.747 240.852C290.721 242.877 287.974 244.017 285.109 244.02Z" fill="#E6E6E6"/>
<path d="M253.867 236.732H143.96C141.095 236.729 138.348 235.59 136.322 233.564C134.296 231.539 133.157 228.792 133.153 225.928V102.588C133.157 99.724 134.296 96.9778 136.322 94.9523C138.348 92.9268 141.095 91.7874 143.96 91.7841H277.82C280.685 91.7874 283.432 92.9268 285.458 94.9523C287.484 96.9778 288.623 99.724 288.627 102.588V201.98C288.616 211.193 284.951 220.027 278.434 226.542C271.918 233.057 263.083 236.722 253.867 236.732Z" fill="white"/>
<path d="M210.89 212.687C237.642 212.687 259.328 191.005 259.328 164.258C259.328 137.512 237.642 115.83 210.89 115.83C184.138 115.83 162.452 137.512 162.452 164.258C162.452 191.005 184.138 212.687 210.89 212.687Z" fill="#00BFA6"/>
<path d="M231.295 161.822L215.131 142.169C214.692 141.636 214.143 141.205 213.521 140.905C212.9 140.605 212.22 140.444 211.53 140.432C210.839 140.421 210.155 140.559 209.524 140.839C208.892 141.118 208.329 141.531 207.873 142.049L190.587 161.701C189.755 162.65 189.333 163.891 189.414 165.151C189.496 166.411 190.074 167.587 191.023 168.42C191.971 169.254 193.211 169.677 194.471 169.597C195.731 169.517 196.908 168.94 197.743 167.993L206.687 157.825V183.322C206.687 184.585 207.189 185.797 208.082 186.69C208.976 187.583 210.187 188.085 211.451 188.085C212.715 188.085 213.927 187.583 214.82 186.69C215.714 185.797 216.216 184.585 216.216 183.322V158.487L223.935 167.873C224.738 168.849 225.895 169.466 227.153 169.588C228.411 169.711 229.665 169.329 230.641 168.526C231.617 167.724 232.235 166.567 232.357 165.309C232.48 164.052 232.098 162.797 231.295 161.822Z" fill="white"/>
<path d="M419.63 459.138L412.444 459.138L409.026 431.425L419.632 431.425L419.63 459.138Z" fill="#FFB6B6"/>
<path d="M419.884 466.633L397.785 466.633V466.353C397.785 464.072 398.692 461.885 400.305 460.272C401.918 458.66 404.105 457.754 406.387 457.754L410.424 454.692L417.955 457.754L419.884 457.754L419.884 466.633Z" fill="#2F2E41"/>
<path d="M365.633 459.138L358.448 459.138L355.029 431.425L365.636 431.425L365.633 459.138Z" fill="#FFB6B6"/>
<path d="M365.887 466.633L343.788 466.633V466.353C343.788 464.072 344.695 461.885 346.308 460.272C347.921 458.66 350.108 457.754 352.389 457.754L356.427 454.692L363.958 457.754L365.887 457.754L365.887 466.633Z" fill="#2F2E41"/>
<path d="M421.922 436.202C424.543 434.489 423.025 434.6 423.025 434.6C423.025 434.6 417.162 387.077 412.702 372.675L407.54 302.544C407.54 302.544 407.213 303.943 407.54 300.542C407.868 297.142 410.25 299.524 407.868 297.142C405.486 294.761 403.898 293.547 405.486 291.772C407.074 289.997 411.455 286.406 408.867 284.232C406.28 282.058 401.188 267.879 401.188 267.879L351.558 268.276L353.543 267.879C353.543 267.879 347.348 265.581 350.186 268.573C353.024 271.566 348.598 278.894 347.01 286.039C345.694 291.957 341.79 293.528 347.01 294.772C352.23 296.017 347.506 299.545 347.506 299.545C347.506 299.545 339.647 336.949 345.603 361.56C345.603 361.56 349.711 422.431 351.791 427.666C353.871 432.901 354.665 429.726 353.871 432.901C353.077 436.077 351.489 430.52 353.077 436.077C353.943 438.98 354.63 441.934 355.131 444.921L365.901 444.127C365.901 444.127 368.402 436.246 365.901 434.177C363.4 432.107 365.127 438.146 367.837 433.539C370.546 428.932 367.37 430.52 366.576 424.168C365.782 417.817 373.067 388.23 367.837 370.076L377.503 319.136L392.85 371.881C392.85 371.881 400.99 436.299 403.635 438.57C406.28 440.84 405.212 435.329 406.28 440.84C407.359 446.41 409.811 444.933 409.741 445.616C409.002 452.898 421.922 445.715 421.922 445.715C421.795 443.865 421.795 442.008 421.922 440.158C422.161 438.459 419.3 437.915 421.922 436.202Z" fill="#2F2E41"/>
<path d="M356.539 284.452C353.362 284.452 344.627 280.151 346.216 278.332C347.804 276.512 347.804 270.474 347.804 268.73C347.804 266.986 354.95 202.679 354.95 202.679L354.407 186.933C354.375 185.99 354.533 185.049 354.871 184.167C355.21 183.286 355.723 182.482 356.379 181.802C357.036 181.123 357.822 180.583 358.691 180.214C359.561 179.845 360.496 179.655 361.44 179.655L368.45 177.273L388.301 176.48L398.201 179.655C399.183 179.655 400.149 179.907 401.006 180.387C401.862 180.867 402.582 181.559 403.095 182.396C403.608 183.234 403.897 184.189 403.935 185.17C403.973 186.151 403.759 187.126 403.312 188.001C408.565 196.575 411.202 206.495 410.898 216.545C410.67 224.065 406.86 233.248 405.942 241.743C405.861 242.488 405.803 243.229 405.771 243.962C405.762 244.167 404.137 245.186 405.748 244.574C407.359 243.962 404.884 246.122 405.725 247.424C406.565 248.726 408.194 247.928 405.791 249.518C403.389 251.107 408.676 266.463 408.153 266.986C406.565 268.573 403.389 269.367 405.771 271.749C408.153 274.131 410.535 272.543 407.359 275.719C404.183 278.894 394.667 284.452 394.667 284.452L356.539 284.452Z" fill="#3F3D56"/>
<path d="M377.767 167.26C387.206 167.26 394.858 159.61 394.858 150.173C394.858 140.736 387.206 133.085 377.767 133.085C368.328 133.085 360.676 140.736 360.676 150.173C360.676 159.61 368.328 167.26 377.767 167.26Z" fill="#FFB6B6"/>
<path d="M273.672 203.19C274.492 202.828 275.381 202.649 276.277 202.668C277.174 202.686 278.055 202.901 278.859 203.297C279.663 203.693 280.371 204.26 280.932 204.959C281.493 205.657 281.894 206.471 282.107 207.341L303.799 209.393L296.703 218.214L277.192 214.914C275.706 215.174 274.175 214.88 272.891 214.088C271.607 213.296 270.658 212.06 270.224 210.615C269.79 209.17 269.901 207.616 270.537 206.247C271.172 204.879 272.288 203.791 273.672 203.19Z" fill="#FFB6B6"/>
<path d="M376.52 190.47C376.02 187.642 374.556 185.075 372.375 183.206C370.195 181.336 367.435 180.28 364.563 180.217C358.187 180.079 355.809 182.206 354.95 185.213C353.362 190.77 327.796 210.305 327.796 210.305L305.839 207.929C304.518 207.501 305.144 206.298 300.18 207.317C297.735 205.716 296.154 205.987 294.792 206.734L286.66 205.854L287.454 218.557C287.454 218.557 296.16 216.486 297.777 220.145C299.394 223.803 299.024 224.329 302.542 221.733C306.059 219.137 305.718 221.733 305.718 221.733L331.128 228.084L370.888 203.154C372.984 201.841 374.639 199.932 375.642 197.672C376.645 195.412 376.951 192.905 376.52 190.47Z" fill="#00BFA6"/>
<path d="M384.402 165.428L385.522 165.785C382.02 166.079 375.779 168.032 376.39 166.953C377.002 165.873 374.691 161.8 375.818 161.284C376.991 160.873 378.036 160.164 378.852 159.228C379.566 158.227 379.551 156.576 378.479 155.965C377.438 155.361 376.152 156.012 375.12 156.624C374.079 157.227 372.158 148.351 372.65 145.58C369.752 143.993 366.242 147.033 362.986 146.438C360.993 146.073 359.556 144.437 358.651 142.579C360.129 141.177 361.23 139.424 361.851 137.483C360.469 138.179 358.992 138.668 357.467 138.935C357.194 137.494 357.232 136.01 357.579 134.585C357.844 133.447 358.387 132.392 359.159 131.514C359.93 130.636 360.907 129.962 362.002 129.551C363.112 129.183 364.315 129.204 365.412 129.611C366.509 130.018 367.435 130.787 368.037 131.79C368.104 130.709 367.826 129.635 367.244 128.722C366.662 127.809 365.805 127.104 364.797 126.709C365.533 126.327 366.347 126.121 367.175 126.106C368.004 126.09 368.825 126.267 369.575 126.621C370.324 126.975 370.982 127.498 371.496 128.148C372.01 128.798 372.367 129.558 372.539 130.369C376.125 128.572 380.24 128.132 384.124 129.131C387.968 130.139 393.066 134.402 393.066 134.402C401.737 136.316 401.324 169.279 384.402 165.428Z" fill="#2F2E41"/>
<path d="M203.774 335.262C201.552 335.262 199.38 334.603 197.533 333.369C195.686 332.135 194.246 330.381 193.396 328.329C192.546 326.277 192.323 324.019 192.757 321.841C193.19 319.662 194.26 317.661 195.831 316.091C197.402 314.52 199.403 313.451 201.582 313.017C203.761 312.584 206.02 312.806 208.072 313.656C210.125 314.506 211.879 315.946 213.113 317.792C214.347 319.639 215.006 321.811 215.006 324.032C215.003 327.009 213.818 329.864 211.712 331.969C209.607 334.074 206.752 335.259 203.774 335.262ZM203.774 314.389C201.866 314.389 200.001 314.955 198.415 316.014C196.829 317.074 195.593 318.58 194.863 320.342C194.133 322.104 193.942 324.042 194.314 325.913C194.687 327.783 195.605 329.501 196.954 330.85C198.303 332.199 200.021 333.117 201.892 333.489C203.763 333.861 205.702 333.67 207.464 332.94C209.227 332.21 210.733 330.974 211.793 329.389C212.852 327.803 213.418 325.939 213.418 324.032C213.415 321.475 212.398 319.024 210.59 317.217C208.782 315.409 206.331 314.392 203.774 314.389Z" fill="#F2F2F2"/>
<path d="M208.171 323.507L204.687 319.271C204.593 319.156 204.474 319.063 204.34 318.999C204.206 318.934 204.06 318.899 203.911 318.897C203.762 318.895 203.615 318.924 203.479 318.985C203.343 319.045 203.221 319.134 203.123 319.245L199.398 323.481C199.22 323.685 199.13 323.952 199.148 324.223C199.166 324.493 199.291 324.746 199.495 324.925C199.698 325.104 199.965 325.195 200.236 325.179C200.507 325.162 200.76 325.039 200.94 324.836L202.867 322.645V328.14C202.867 328.412 202.976 328.673 203.168 328.866C203.361 329.058 203.622 329.166 203.894 329.166C204.166 329.166 204.428 329.058 204.62 328.866C204.813 328.673 204.921 328.412 204.921 328.14V322.788L206.584 324.811C206.757 325.021 207.007 325.154 207.278 325.18C207.549 325.207 207.819 325.124 208.03 324.951C208.24 324.779 208.373 324.529 208.399 324.258C208.426 323.987 208.344 323.717 208.171 323.507Z" fill="#F2F2F2"/>
<path d="M331.619 169.334C329.398 169.334 327.226 168.676 325.379 167.442C323.532 166.208 322.092 164.454 321.242 162.402C320.392 160.35 320.169 158.092 320.603 155.913C321.036 153.735 322.106 151.734 323.677 150.163C325.248 148.592 327.249 147.523 329.428 147.09C331.607 146.656 333.865 146.879 335.918 147.729C337.97 148.579 339.725 150.018 340.959 151.865C342.193 153.712 342.852 155.883 342.852 158.104C342.848 161.081 341.664 163.936 339.558 166.041C337.452 168.147 334.597 169.331 331.619 169.334ZM331.619 148.462C329.712 148.462 327.847 149.027 326.261 150.087C324.675 151.146 323.439 152.652 322.709 154.414C321.979 156.176 321.788 158.115 322.16 159.985C322.532 161.856 323.451 163.574 324.8 164.922C326.148 166.271 327.867 167.189 329.738 167.561C331.609 167.933 333.548 167.742 335.31 167.013C337.072 166.283 338.579 165.047 339.638 163.461C340.698 161.875 341.264 160.011 341.264 158.104C341.261 155.548 340.244 153.097 338.436 151.289C336.628 149.481 334.176 148.464 331.619 148.462Z" fill="#F2F2F2"/>
<path d="M336.016 157.579L332.533 153.344C332.438 153.229 332.32 153.136 332.186 153.071C332.052 153.007 331.906 152.972 331.757 152.969C331.608 152.967 331.461 152.997 331.325 153.057C331.188 153.117 331.067 153.206 330.969 153.318L327.244 157.553C327.066 157.758 326.976 158.024 326.994 158.295C327.012 158.566 327.137 158.818 327.34 158.997C327.544 159.177 327.811 159.268 328.081 159.251C328.352 159.235 328.605 159.111 328.786 158.909L330.713 156.718V162.212C330.713 162.484 330.821 162.746 331.014 162.938C331.206 163.131 331.468 163.239 331.74 163.239C332.012 163.239 332.273 163.131 332.466 162.938C332.658 162.746 332.767 162.484 332.767 162.212V156.86L334.43 158.883C334.603 159.093 334.853 159.226 335.124 159.253C335.395 159.279 335.665 159.197 335.875 159.024C336.086 158.851 336.219 158.601 336.245 158.33C336.272 158.06 336.189 157.789 336.016 157.579Z" fill="#F2F2F2"/>
<path d="M78.3097 159.807C76.0881 159.807 73.9164 159.149 72.0692 157.915C70.2221 156.681 68.7823 154.927 67.9322 152.875C67.082 150.823 66.8596 148.565 67.293 146.386C67.7264 144.208 68.7962 142.207 70.3671 140.636C71.938 139.065 73.9394 137.996 76.1183 137.563C78.2972 137.129 80.5557 137.352 82.6082 138.202C84.6607 139.052 86.415 140.491 87.6492 142.338C88.8835 144.185 89.5423 146.356 89.5423 148.577C89.5389 151.555 88.3544 154.409 86.2486 156.514C84.1428 158.62 81.2877 159.804 78.3097 159.807ZM78.3097 138.935C76.4022 138.935 74.5376 139.5 72.9515 140.56C71.3655 141.619 70.1294 143.125 69.3994 144.887C68.6695 146.649 68.4785 148.588 68.8506 150.458C69.2228 152.329 70.1413 154.047 71.4901 155.395C72.8389 156.744 74.5574 157.662 76.4282 158.034C78.299 158.406 80.2382 158.215 82.0005 157.486C83.7628 156.756 85.269 155.52 86.3287 153.934C87.3885 152.348 87.9541 150.484 87.9541 148.577C87.9513 146.021 86.9343 143.57 85.1262 141.762C83.3182 139.954 80.8667 138.937 78.3097 138.935Z" fill="#F2F2F2"/>
<path d="M82.7072 148.052L79.2238 143.817C79.1293 143.702 79.011 143.609 78.877 143.544C78.743 143.48 78.5965 143.445 78.4478 143.442C78.299 143.44 78.1515 143.47 78.0154 143.53C77.8794 143.59 77.758 143.679 77.6597 143.791L73.9346 148.026C73.7566 148.231 73.6668 148.498 73.6849 148.768C73.703 149.039 73.8276 149.291 74.0314 149.47C74.2351 149.65 74.5015 149.741 74.7723 149.724C75.0431 149.708 75.2963 149.585 75.4767 149.382L77.404 147.191V152.685C77.404 152.957 77.5122 153.219 77.7047 153.411C77.8973 153.604 78.1584 153.712 78.4307 153.712C78.703 153.712 78.9642 153.604 79.1567 153.411C79.3493 153.219 79.4575 152.957 79.4575 152.685V147.333L81.1211 149.356C81.294 149.566 81.5435 149.699 81.8145 149.726C82.0855 149.752 82.356 149.67 82.5663 149.497C82.7766 149.324 82.9096 149.075 82.936 148.804C82.9625 148.533 82.8802 148.262 82.7072 148.052Z" fill="#F2F2F2"/>
<path d="M168.04 22.4606C165.819 22.4606 163.647 21.8019 161.8 20.5679C159.953 19.3339 158.513 17.58 157.663 15.5279C156.812 13.4759 156.59 11.2178 157.023 9.03938C157.457 6.86092 158.527 4.85987 160.098 3.28929C161.668 1.7187 163.67 0.649119 165.849 0.215795C168.028 -0.217529 170.286 0.00485815 172.339 0.854852C174.391 1.70485 176.145 3.14427 177.38 4.99108C178.614 6.83789 179.273 9.00915 179.273 11.2303C179.269 14.2077 178.085 17.0622 175.979 19.1676C173.873 21.2729 171.018 22.4572 168.04 22.4606ZM168.04 1.58784C166.133 1.58784 164.268 2.15337 162.682 3.21289C161.096 4.27242 159.86 5.77836 159.13 7.54029C158.4 9.30223 158.209 11.241 158.581 13.1115C158.953 14.9819 159.872 16.7 161.221 18.0486C162.569 19.3971 164.288 20.3154 166.159 20.6875C168.029 21.0596 169.969 20.8686 171.731 20.1388C173.493 19.409 174.999 18.1731 176.059 16.5874C177.119 15.0017 177.685 13.1374 177.685 11.2303C177.682 8.67383 176.665 6.22287 174.857 4.41517C173.049 2.60747 170.597 1.59068 168.04 1.58784Z" fill="#F2F2F2"/>
<path d="M172.437 10.7051L168.954 6.46991C168.859 6.35503 168.741 6.26205 168.607 6.19741C168.473 6.13278 168.327 6.09803 168.178 6.09557C168.029 6.09311 167.881 6.12299 167.745 6.18315C167.609 6.24332 167.488 6.33232 167.39 6.44401L163.665 10.6792C163.487 10.8839 163.397 11.1507 163.415 11.4214C163.433 11.692 163.558 11.9445 163.761 12.1237C163.965 12.3028 164.231 12.3941 164.502 12.3774C164.773 12.3608 165.026 12.2377 165.207 12.035L167.134 9.84383V15.3384C167.134 15.6107 167.242 15.8717 167.435 16.0643C167.627 16.2568 167.888 16.3649 168.161 16.3649C168.433 16.3649 168.694 16.2568 168.887 16.0643C169.079 15.8717 169.187 15.6107 169.187 15.3384V9.98653L170.851 12.0092C171.024 12.2194 171.273 12.3524 171.544 12.3788C171.816 12.4052 172.086 12.3229 172.296 12.15C172.507 11.9771 172.64 11.7277 172.666 11.4567C172.692 11.1857 172.61 10.9153 172.437 10.7051Z" fill="#F2F2F2"/>
<path d="M48.1353 243.168C45.9137 243.168 43.7419 242.51 41.8946 241.276C40.0474 240.042 38.6076 238.288 37.7574 236.236C36.9072 234.183 36.6848 231.925 37.1182 229.747C37.5516 227.568 38.6214 225.567 40.1923 223.997C41.7633 222.426 43.7648 221.356 45.9438 220.923C48.1227 220.49 50.3813 220.712 52.4338 221.562C54.4863 222.412 56.2406 223.852 57.4749 225.698C58.7091 227.545 59.3679 229.717 59.3678 231.938C59.3645 234.915 58.18 237.77 56.0742 239.875C53.9684 241.981 51.1133 243.165 48.1353 243.168ZM48.1353 222.295C46.2278 222.295 44.3631 222.86 42.777 223.92C41.1909 224.98 39.9547 226.485 39.2247 228.247C38.4947 230.009 38.3037 231.948 38.6758 233.819C39.0479 235.689 39.9664 237.407 41.3152 238.756C42.664 240.105 44.3825 241.023 46.2534 241.395C48.1242 241.767 50.0634 241.576 51.8257 240.846C53.5881 240.117 55.0944 238.881 56.1542 237.295C57.214 235.709 57.7797 233.845 57.7797 231.938C57.7769 229.381 56.7599 226.93 54.9518 225.123C53.1438 223.315 50.6923 222.298 48.1353 222.295Z" fill="white"/>
<path d="M52.5324 231.413L49.049 227.178C48.9545 227.063 48.8362 226.97 48.7022 226.905C48.5682 226.84 48.4217 226.806 48.273 226.803C48.1242 226.801 47.9767 226.831 47.8406 226.891C47.7046 226.951 47.5832 227.04 47.4849 227.152L43.7598 231.387C43.5818 231.591 43.492 231.858 43.5101 232.129C43.5282 232.4 43.6528 232.652 43.8565 232.831C44.0603 233.01 44.3267 233.102 44.5975 233.085C44.8683 233.068 45.1215 232.945 45.3019 232.743L47.2292 230.551V236.046C47.2292 236.318 47.3374 236.579 47.5299 236.772C47.7225 236.964 47.9836 237.073 48.2559 237.073C48.5282 237.073 48.7894 236.964 48.9819 236.772C49.1745 236.579 49.2827 236.318 49.2827 236.046V230.694L50.9463 232.717C51.1192 232.927 51.3687 233.06 51.6397 233.086C51.9107 233.113 52.1812 233.031 52.3915 232.858C52.6018 232.685 52.7348 232.435 52.7612 232.164C52.7877 231.893 52.7054 231.623 52.5324 231.413Z" fill="white"/>
<path d="M291.122 55.011C288.9 55.011 286.728 54.3524 284.881 53.1184C283.034 51.8844 281.594 50.1304 280.744 48.0783C279.894 46.0262 279.671 43.7681 280.104 41.5896C280.538 39.4111 281.608 37.41 283.179 35.8394C284.75 34.2687 286.751 33.1991 288.93 32.7658C291.109 32.3325 293.368 32.5549 295.42 33.4049C297.473 34.255 299.227 35.6944 300.461 37.5413C301.695 39.3882 302.354 41.5595 302.354 43.7807C302.351 46.7581 301.166 49.6126 299.061 51.718C296.955 53.8233 294.1 55.0076 291.122 55.011ZM291.122 34.1378C289.214 34.1378 287.349 34.7033 285.763 35.7628C284.177 36.8223 282.941 38.3283 282.211 40.0902C281.481 41.8522 281.29 43.791 281.662 45.6615C282.034 47.532 282.953 49.2502 284.302 50.5988C285.65 51.9473 287.369 52.8657 289.24 53.2378C291.111 53.6099 293.05 53.419 294.812 52.6892C296.574 51.9594 298.081 50.7236 299.141 49.1378C300.2 47.5521 300.766 45.6878 300.766 43.7807C300.763 41.2242 299.746 38.7732 297.938 36.9654C296.13 35.1577 293.679 34.1408 291.122 34.1378Z" fill="white"/>
<path d="M295.519 43.2554L292.035 39.0203C291.941 38.9054 291.822 38.8124 291.688 38.7478C291.554 38.6832 291.408 38.6484 291.259 38.646C291.111 38.6435 290.963 38.6734 290.827 38.7335C290.691 38.7937 290.57 38.8827 290.471 38.9944L286.746 43.2295C286.568 43.4343 286.478 43.7011 286.496 43.9718C286.515 44.2424 286.639 44.4949 286.843 44.6741C287.047 44.8532 287.313 44.9444 287.584 44.9278C287.855 44.9112 288.108 44.7881 288.288 44.5854L290.216 42.3942V47.8888C290.216 48.161 290.324 48.4221 290.516 48.6146C290.709 48.8072 290.97 48.9153 291.242 48.9153C291.515 48.9153 291.776 48.8072 291.968 48.6146C292.161 48.4221 292.269 48.161 292.269 47.8888V42.5369L293.933 44.5595C294.106 44.7698 294.355 44.9028 294.626 44.9292C294.897 44.9556 295.167 44.8733 295.378 44.7004C295.588 44.5275 295.721 44.2781 295.748 44.0071C295.774 43.7361 295.692 43.4657 295.519 43.2554Z" fill="white"/>
</svg>
