<svg width="73" height="72" viewBox="0 0 73 72" fill="none" xmlns="http://www.w3.org/2000/svg">
<path d="M69.294 38.7273C70.8147 20.3763 57.1519 4.26874 38.7773 2.74997C20.4026 1.23119 4.27426 14.8764 2.75353 33.2273C1.2328 51.5783 14.8956 67.6859 33.2702 69.2047C51.6449 70.7235 67.7732 57.0783 69.294 38.7273Z" fill="#00BFA6"/>
<path d="M44.5106 22.4509L35.7413 31.209L26.9719 22.4509C25.5524 21.0332 23.2508 21.0332 21.8313 22.4509C20.4117 23.8687 20.4117 26.1672 21.8313 27.585L30.6006 36.343L21.8313 45.1011C20.413 46.5201 20.4152 48.8187 21.8361 50.2351C23.2551 51.6496 25.5529 51.6496 26.9719 50.2351L35.7413 41.477L44.5106 50.2351C45.9315 51.6515 48.233 51.6493 49.6513 50.2303C51.0676 48.8131 51.0676 46.5182 49.6513 45.1011L40.8819 36.343L49.6513 27.585C51.0708 26.1672 51.0708 23.8687 49.6513 22.4509C48.2317 21.0332 45.9301 21.0332 44.5106 22.4509Z" fill="white"/>
</svg>
