<svg xmlns="http://www.w3.org/2000/svg" version="1.1" xmlns:xlink="http://www.w3.org/1999/xlink" xmlns:svgjs="http://svgjs.dev/svgjs" width="1440" height="1024" preserveAspectRatio="none" viewBox="0 0 1440 1024"><g mask="url(&quot;#SvgjsMask1048&quot;)" fill="none"><path d="M896.7814021735753 173.59855069047654L708.0706804742995 291.51809705704454 825.9902268408674 480.2288187563204 1014.7009485401433 362.30927238975244z" fill="rgba(0, 191, 166, 0.5019607843137255)" class="triangle-float3"></path><path d="M1230.3381621716558 14.07668216578395L1013.1373654709748-188.46633747872028 810.5943458264705 28.73445922196072 1027.7951425271515 231.27747886646495z" fill="rgba(0, 191, 166, 0.5019607843137255)" class="triangle-float2"></path><path d="M598.93144578593 721.1717768822541L416.92672801120807 658.3084436688696 446.15580640345655 824.074784559009z" fill="rgba(0, 191, 166, 0.5019607843137255)" class="triangle-float1"></path><path d="M650.7568418555543 675.6441126730828L644.6319101341487 851.0392087878163 820.0270062488823 857.1641405092219 826.1519379702879 681.7690443944883z" fill="rgba(0, 191, 166, 0.5019607843137255)" class="triangle-float2"></path><path d="M1230.3709853486662 332.59926346846015L1365.709405791483 197.26084302564325 1230.3709853486662 61.922422582826414 1095.0325649058493 197.26084302564328z" fill="rgba(0, 191, 166, 0.5019607843137255)" class="triangle-float2"></path><path d="M527.7656032731367 733.6995742493395L404.43042332121263 637.3395709102819 321.5580082885881 870.5223425076967z" fill="rgba(0, 191, 166, 0.5019607843137255)" class="triangle-float2"></path><path d="M1244.9422751271954 442.6542472530104L1002.6331574505156 313.81620400674865 873.7951142042538 556.1253216834285 1116.1042318809336 684.9633649296903z" fill="rgba(0, 191, 166, 0.5019607843137255)" class="triangle-float2"></path><path d="M114.861,398.593C179.067,398.349,252.13,401.222,287.128,347.393C324.251,290.296,306.005,216.217,271.683,157.394C237.678,99.115,182.303,50.062,114.861,52.152C50.051,54.161,6.908,110.739,-25.982,166.619C-59.541,223.636,-94.022,292.157,-59.686,348.71C-26.027,404.148,50.005,398.839,114.861,398.593" fill="rgba(0, 191, 166, 0.5019607843137255)" class="triangle-float2"></path></g><defs><mask id="SvgjsMask1048"><rect width="1440" height="1024" fill="#ffffff"></rect></mask><style>
                @keyframes float1 {
                    0%{transform: translate(0, 0)}
                    50%{transform: translate(-10px, 0)}
                    100%{transform: translate(0, 0)}
                }

                .triangle-float1 {
                    animation: float1 5s infinite;
                }

                @keyframes float2 {
                    0%{transform: translate(0, 0)}
                    50%{transform: translate(-5px, -5px)}
                    100%{transform: translate(0, 0)}
                }

                .triangle-float2 {
                    animation: float2 4s infinite;
                }

                @keyframes float3 {
                    0%{transform: translate(0, 0)}
                    50%{transform: translate(0, -10px)}
                    100%{transform: translate(0, 0)}
                }

                .triangle-float3 {
                    animation: float3 6s infinite;
                }
            </style></defs></svg>