<svg width="291" height="418" viewBox="0 0 291 418" fill="none" xmlns="http://www.w3.org/2000/svg">
<path d="M19.6557 194C8.86368 194 0.11504 185.27 0.11504 174.5C0.11504 163.73 8.86368 155 19.6557 155C30.4477 155 39.1963 163.73 39.1963 174.5C39.1963 185.27 30.4477 194 19.6557 194Z" fill="#00BFA6"/>
<path d="M222.575 406L211.712 405.999L206.544 366L222.578 366.001L222.575 406Z" fill="#FFB6B6"/>
<path d="M222.577 418L190.511 417.999V417.578C190.511 414.14 191.826 410.843 194.167 408.412C196.507 405.981 199.682 404.615 202.992 404.615H202.993L208.85 400L219.778 404.616L222.578 404.616L222.577 418Z" fill="#2F2E41"/>
<path d="M268.671 406L257.808 405.999L252.64 366L268.673 366.001L268.671 406Z" fill="#FFB6B6"/>
<path d="M268.673 418L235.605 417.999V417.578C235.605 414.14 236.961 410.843 239.375 408.412C241.788 405.981 245.062 404.615 248.476 404.615H248.476L254.517 400L265.787 404.616L268.673 404.616L268.673 418Z" fill="#2F2E41"/>
<path d="M195.365 184C195.365 184 185.032 215.225 186.94 219.335C188.847 223.445 192.101 220.243 188.847 223.445C185.593 226.646 182.752 223.243 185.8 228.68C188.847 234.117 193.463 278.876 195.493 281.043C197.524 283.21 200.315 283.268 197.835 285.373C195.354 287.479 192.101 283.21 195.354 287.479C198.608 291.747 207.243 390.227 207.243 390.227H224.11C224.11 390.227 228.311 385.462 225.933 382.361C223.555 379.26 226.142 378.065 225.933 375.995C225.724 373.924 226.515 369.46 226.662 367.423C226.809 365.386 229.659 316.861 222.811 288.829L235.299 235.455L250.426 299.965C250.426 299.965 243.468 354.075 250.426 371.47C250.426 371.47 244.816 376.067 247.304 378.731C249.792 381.395 251.961 379.26 249.792 381.395C247.623 383.529 253.046 391 253.046 391L271.485 389.933L281.921 288.829C281.921 288.829 283.681 278.285 281.921 276.478C280.162 274.672 280.162 281.075 280.162 274.672V266.134C280.162 266.134 279.143 213.621 279.007 210.529C278.871 207.436 265.856 185.024 265.856 185.024L195.365 184Z" fill="#2F2E41"/>
<path d="M195.521 74.7968V136.623C197.551 142.609 198.598 148.876 198.623 155.186C198.556 165.696 196.206 177.808 196.213 183.104C196.182 183.806 196.26 184.509 196.444 185.188C206.85 214.847 261.914 187.895 266.92 185.371C267.158 185.254 267.285 185.188 267.285 185.188L266.199 151.968L266.385 142.416L267.671 76.8886L266.518 75.9817L256.417 68.0605L255.428 67.2852L252.393 71.6371L225.341 69.8086L215.017 67L211.796 68.2873L197.277 74.0947L195.521 74.7968Z" fill="#00BFA6"/>
<path d="M103.738 124.15L122.375 118L127.38 128.136L107.444 133.938C106.792 134.97 105.865 135.8 104.767 136.335C103.668 136.871 102.442 137.089 101.226 136.967C100.009 136.845 98.8514 136.386 97.8819 135.643C96.9125 134.9 96.1699 133.901 95.7378 132.76C95.3056 131.619 95.201 130.38 95.4357 129.183C95.6704 127.985 96.235 126.877 97.0662 125.983C97.8973 125.088 98.9621 124.443 100.141 124.119C101.319 123.795 102.565 123.806 103.738 124.15Z" fill="#FFB6B6"/>
<path d="M213.755 70L213.832 70.3064C215.29 76.0937 217.151 92.624 213.163 97.0874C208.041 102.826 166.674 120.346 158.455 118.919C152.082 117.812 153.394 118.183 150.344 121.332C147.295 124.48 152.356 125.216 145.554 125.767C138.751 126.318 138.616 123.733 137.159 126.599C135.702 129.466 136.998 131.194 132.368 131.034C127.739 130.875 126.578 131.732 124.985 132.014C123.393 132.296 113.393 137 113.393 137C113.393 137 109.381 125.642 104.332 121.317C104.332 121.317 115.912 119.921 116.789 117.483C117.665 115.045 116.95 112.889 119.987 113.33C123.024 113.771 124.604 117.079 124.184 112.913C123.765 108.748 145.642 100.638 145.642 100.638C158.844 87.7381 185.97 78.7759 213.755 70Z" fill="#00BFA6"/>
<path d="M273.07 198.539L273.952 179.072L285.709 178L284.007 198.55C284.775 199.519 285.243 200.672 285.36 201.88C285.477 203.089 285.237 204.304 284.668 205.39C284.098 206.475 283.222 207.388 282.137 208.026C281.052 208.664 279.802 209.001 278.527 209C277.252 208.999 276.002 208.659 274.919 208.019C273.836 207.379 272.961 206.464 272.394 205.377C271.827 204.29 271.59 203.075 271.71 201.867C271.829 200.658 272.3 199.506 273.07 198.539Z" fill="#FFB6B6"/>
<path d="M261.658 75L261.972 75.0373C264.885 75.3853 267.67 76.4467 270.087 78.1299C272.504 79.813 274.479 82.0671 275.841 84.6969C279.399 91.5556 290.657 138.009 287.9 144.384C285.33 150.33 285.436 148.868 287.304 152.856C289.172 156.843 291.636 152.36 289.761 158.937C287.887 165.514 285.426 164.715 287.59 167.108C289.755 169.501 291.822 168.905 290.048 173.189C288.273 177.474 288.666 178.869 288.369 180.464C288.073 182.058 288.952 193.122 288.952 193.122C288.952 193.122 276.941 192.815 271.13 196C271.13 196 273.894 184.64 271.926 182.944C269.958 181.249 267.694 181.148 269.172 178.458C270.651 175.768 274.294 175.471 270.258 174.372C266.222 173.273 266.336 149.852 266.336 149.852L261.658 75Z" fill="#00BFA6"/>
<path d="M231.831 50.4665C232.313 50.5749 232.795 50.6688 233.277 50.7411C234.75 50.9767 236.246 51.0519 237.736 50.9651C241.617 50.7621 245.365 49.5158 248.564 47.3646C251.762 45.2133 254.287 42.2411 255.857 38.7775C257.427 35.314 257.982 31.4945 257.459 27.7426C256.937 23.9907 255.358 20.4531 252.897 17.522C250.437 14.591 247.191 12.3811 243.52 11.1374C239.848 9.89367 235.895 9.6648 232.098 10.4761C228.302 11.2875 224.81 13.1073 222.01 15.7338C219.211 18.3603 217.212 21.6908 216.238 25.356C216.193 25.5222 216.149 25.6812 216.111 25.8474C214.846 31.1425 215.791 36.7105 218.738 41.3272C221.686 45.9438 226.395 49.2312 231.831 50.4665Z" fill="#FFB6B6"/>
<path d="M251.245 48.5074C254.13 46.2259 254.41 41.8773 256.873 39.136C260.99 34.5527 262.924 29.6218 260.768 24.191C258.86 19.3877 259.265 13.4832 255.157 10.3913C257.175 9.65341 257.65 8.12097 255.869 8.09268C254.669 8.0736 250.193 10.3917 252.347 7.50395C254.5 4.61615 250.424 5.75603 250.693 4.57395C250.963 3.39188 252.692 2.73717 253.454 3.67418C251.02 0.792206 245.703 1.40664 243.975 4.7696C241.549 1.0955 238.973 -1.43263 235.26 0.898952C231.612 3.18891 231.66 6.01963 227.738 5.33933C225.894 5.01954 225.72 8.53855 224.461 9.93587C223.201 11.3332 221.36 12.4146 219.522 12.0637C217.684 11.7127 216.278 9.39852 217.308 7.82091L212.976 17.8059L211.23 15.6423C208.455 17.4689 209.366 22.2353 212.159 24.0333C214.952 25.8312 220.282 21.6756 221.797 24.6501C224.186 29.339 229.791 26.9713 233.64 23.6576C238.307 19.639 243.941 31.8577 241.693 37.6211C244.026 35.3069 248.341 37.2274 249.55 40.2965C250.758 43.3656 249.872 46.8234 248.976 50L251.245 48.5074Z" fill="#2F2E41"/>
<path d="M21.1337 174H82.311C83.8984 173.998 85.4202 173.37 86.5427 172.254C87.6652 171.138 88.2966 169.625 88.2983 168.046V107.954C88.2966 106.375 87.6652 104.862 86.5427 103.746C85.4202 102.63 83.8984 102.002 82.311 102H21.1337C19.5463 102.002 18.0243 102.63 16.9019 103.746C15.7794 104.862 15.148 106.375 15.1463 107.954V168.046C15.148 169.625 15.7794 171.138 16.9019 172.254C18.0243 173.37 19.5463 173.998 21.1337 174Z" fill="#E6E6E6"/>
<path d="M31.2365 170H93.2519C94.861 169.998 96.4038 169.362 97.5416 168.23C98.6795 167.098 99.3195 165.564 99.3213 163.963V103.037C99.3195 101.436 98.6795 99.9017 97.5416 98.77C96.4038 97.6384 94.861 97.0018 93.2519 97H31.2365C29.6274 97.0018 28.0846 97.6384 26.9468 98.77C25.809 99.9017 25.1689 101.436 25.1671 103.037V163.963C25.1689 165.564 25.809 167.098 26.9468 168.23C28.0846 169.362 29.6274 169.998 31.2365 170Z" fill="#E6E6E6"/>
<path d="M81.5947 98C85.7645 98 89.7636 99.6471 92.7121 102.579C95.6607 105.511 97.3171 109.487 97.3171 113.633V161.502C97.3171 162.224 97.1741 162.939 96.8962 163.606C96.6183 164.273 96.211 164.879 95.6975 165.39C95.184 165.9 94.5744 166.305 93.9035 166.581C93.2326 166.858 92.5135 167 91.7873 167H54.077C50.5437 167 47.045 166.308 43.7807 164.964C40.5163 163.619 37.5502 161.648 35.0518 159.164C32.5534 156.68 30.5715 153.731 29.2194 150.485C27.8672 147.239 27.1713 143.76 27.1713 140.247V103.498C27.1713 102.04 27.7539 100.642 28.791 99.6105C29.828 98.5793 31.2345 98 32.7011 98H81.5947Z" fill="white"/>
<path d="M45.3411 116H78.1441C78.4451 116 78.7338 115.895 78.9466 115.707C79.1595 115.52 79.2791 115.265 79.2791 115C79.2791 114.735 79.1595 114.48 78.9466 114.293C78.7338 114.105 78.4451 114 78.1441 114H45.3411C45.0401 114 44.7514 114.105 44.5386 114.293C44.3257 114.48 44.2061 114.735 44.2061 115C44.2061 115.265 44.3257 115.52 44.5386 115.707C44.7514 115.895 45.0401 116 45.3411 116Z" fill="#E6E6E6"/>
<path d="M45.3382 141H78.1412C78.2905 141 78.4384 140.962 78.5765 140.887C78.7145 140.812 78.8399 140.701 78.9456 140.562C79.0513 140.423 79.1351 140.257 79.1924 140.075C79.2496 139.893 79.2791 139.697 79.2791 139.5C79.2791 139.303 79.2496 139.107 79.1924 138.925C79.1351 138.743 79.0513 138.577 78.9456 138.438C78.8399 138.299 78.7145 138.188 78.5765 138.113C78.4384 138.038 78.2905 138 78.1412 138H45.3382C45.0377 138.001 44.7498 138.159 44.5375 138.441C44.3253 138.722 44.2061 139.103 44.2061 139.5C44.2061 139.897 44.3253 140.278 44.5375 140.559C44.7498 140.841 45.0377 140.999 45.3382 141Z" fill="#E6E6E6"/>
<path d="M32.3217 128H92.1658C92.4688 128 92.7594 127.895 92.9737 127.707C93.188 127.52 93.3083 127.265 93.3083 127C93.3083 126.735 93.188 126.48 92.9737 126.293C92.7594 126.105 92.4688 126 92.1658 126H32.3217C32.0187 126 31.7281 126.105 31.5138 126.293C31.2996 126.48 31.1792 126.735 31.1792 127C31.1792 127.265 31.2996 127.52 31.5138 127.707C31.7281 127.895 32.0187 128 32.3217 128Z" fill="#E6E6E6"/>
<path d="M32.2813 150H53.1259C53.2706 150 53.4138 149.974 53.5475 149.924C53.6811 149.874 53.8026 149.8 53.9049 149.707C54.0072 149.614 54.0883 149.504 54.1437 149.383C54.1991 149.261 54.2275 149.131 54.2275 149C54.2275 148.869 54.1991 148.739 54.1437 148.617C54.0883 148.496 54.0072 148.386 53.9049 148.293C53.8026 148.2 53.6811 148.126 53.5475 148.076C53.4138 148.026 53.2706 148 53.1259 148H32.2813C31.9891 148 31.7089 148.105 31.5023 148.293C31.2957 148.48 31.1796 148.735 31.1796 149C31.1796 149.265 31.2957 149.52 31.5023 149.707C31.7089 149.895 31.9891 150 32.2813 150Z" fill="#E6E6E6"/>
<path d="M238.611 50.8652L233.6 50C235.256 50.9102 236.936 51.2003 238.611 50.8652Z" fill="#F2F2F2"/>
<path d="M211.555 68.9829L212.282 69.9142L214.237 72.4122L231.12 94L255.646 68.7538L254.669 67.9704L249.465 56.8476L222.734 55L214.737 67.6822L211.555 68.9829Z" fill="#3F3D56"/>
</svg>
