<svg width="303" height="305" viewBox="0 0 303 305" fill="none" xmlns="http://www.w3.org/2000/svg">
<path d="M2.62201 105.008L50.9434 90.2158C52.0123 89.8887 53.1338 89.7693 54.2476 89.8641L299.148 110.707C302.64 111.004 303.518 115.714 300.367 117.248L292.523 121.07H292.732V304.022H285.34V124.57L260.754 136.547C258.873 137.464 256.774 137.838 254.692 137.627L252.076 137.363V304.022H244.684V136.617L55.2653 117.483V304.022H47.8733V116.737L16.4575 113.563V304.022H9.06558V112.817L3.33414 112.238C-0.689423 111.831 -1.2449 106.192 2.62201 105.008Z" fill="#3F3D56"/>
<path d="M228.052 109.982C223.432 109.982 155.057 101.666 155.057 101.666L144.893 115.526L216.04 129.386L228.052 109.982Z" fill="white"/>
<path d="M153.009 296.917L164.889 296.895L170.461 251.064L152.928 251.096L153.009 296.917Z" fill="#A0616A"/>
<path d="M193.709 296.577C194.08 297.2 194.279 299.21 194.28 299.934C194.284 302.161 192.482 303.969 190.255 303.973L153.466 304.036C151.947 304.039 150.713 302.81 150.711 301.291L150.708 299.759C150.708 299.759 148.88 295.159 152.617 289.478C152.617 289.478 157.282 293.913 164.228 286.943L166.274 283.222L181.146 294.059L189.381 295.059C191.183 295.277 192.78 295.018 193.709 296.577Z" fill="#2F2E41"/>
<path d="M89.2517 275.605L98.6245 282.674L130.354 249.887L116.52 239.453L89.2517 275.605Z" fill="#A0616A"/>
<path d="M121.522 299.615C121.443 300.327 120.4 302.029 119.969 302.601C118.644 304.357 116.146 304.707 114.389 303.382L85.3644 281.487C84.1659 280.583 83.9272 278.878 84.8314 277.68L85.743 276.471C85.743 276.471 87.0469 271.756 93.3799 269.51C93.3799 269.51 94.4097 275.786 104.041 274.438L107.872 272.726L113.126 290.137L119.018 295.837C120.307 297.084 121.72 297.832 121.522 299.615Z" fill="#2F2E41"/>
<path d="M114.078 38.7398C114.078 49.6946 122.959 58.5752 133.914 58.5752C144.868 58.5752 153.749 49.6946 153.749 38.7398C153.749 27.7849 144.868 18.9043 133.914 18.9043C122.959 18.9043 114.078 27.7849 114.078 38.7398Z" fill="#A0616A"/>
<path d="M115.947 153.107C115.947 153.107 188.979 148.973 193.113 157.241C197.247 165.508 170.764 279.074 170.764 279.074L147.138 274.122L158.664 194.446C158.664 194.446 97.7207 210.586 89.453 191.294C81.1852 172.003 83.5653 164.819 83.5653 164.819L115.947 153.107Z" fill="#2F2E41"/>
<path d="M97.2358 139.229C97.2358 139.229 168.759 154.561 170.559 163.628C172.358 172.695 116.778 275.209 116.778 275.209L95.3028 264.184L127.495 190.395C127.495 190.395 64.4535 189.838 61.5835 169.047C58.7135 148.256 62.909 141.958 62.909 141.958L97.2358 139.229Z" fill="#2F2E41"/>
<path d="M89.0771 61.4722H123.439L146.951 100.055C146.951 100.055 152.463 124.989 146.951 127.679C141.439 130.37 141.439 159.307 141.439 159.307L83.5653 164.819C83.5653 164.819 75.2976 78.0077 78.0535 69.7399C80.8094 61.4722 89.0771 61.4722 89.0771 61.4722Z" fill="#00BFA6"/>
<path d="M143.506 86.9648L146.951 127.68L185.698 111.235L194.946 106.584C196.757 104.222 199.108 102.328 201.801 101.061C208.498 97.7972 215.609 98.6057 217.685 102.866C219.762 107.127 216.018 113.226 209.322 116.488C206.664 117.829 203.723 118.513 200.746 118.484L173.688 133.852L173.656 133.792L173.536 134.006L131.105 151.729L121.342 98.2798L143.506 86.9648Z" fill="#A0616A"/>
<path d="M147.64 41.4919C147.64 41.4919 168.31 44.2478 160.042 26.3343C160.042 26.3343 161.303 16.6235 155.161 15.9671C149.018 15.3107 140.751 4.28699 140.751 4.28699C140.751 4.28699 121.796 -5.35873 111.982 4.28699C102.168 13.9327 73.2309 70.4291 73.2309 70.4291L92.5223 91.0985C92.5223 91.0985 104.12 60.6097 117.613 64.1414C131.105 67.6731 143.507 78.2031 143.507 78.2031C143.507 78.2031 157.199 71.3507 151.042 65.378C144.885 59.4054 147.64 41.4919 147.64 41.4919Z" fill="#2F2E41"/>
<path d="M120.081 71.8069C120.081 71.8069 129.727 59.4053 136.617 69.051C143.506 78.6967 149.018 91.0984 149.018 91.0984L121.459 100.744L120.081 71.8069Z" fill="#00BFA6"/>
<path d="M15.4431 301.279L47.462 199.509L47.4573 199.508H47.3833L47.5127 199.342L47.5155 199.338L49.7961 192.09L49.795 192.089C46.3208 189.095 43.9554 184.817 43.4841 179.892L58.1202 99.3932C57.1131 88.8226 65.2165 79.5826 75.8332 79.2037L108.857 79.1206C118.244 78.788 126.376 85.5701 127.743 94.8656L128.473 99.7997L138.591 168.628C138.96 171.105 138.813 173.544 138.23 175.826L145.512 176.778L147.72 177.074L156.452 178.21L156.479 178.219L157.57 178.358H158.752V207.926H158.678V302.433C158.678 303.042 158.18 303.541 157.57 303.541C156.951 303.541 156.452 303.042 156.452 302.433V207.926H143.497L130.571 302.322C130.487 302.876 130.016 303.283 129.462 303.283C129.416 303.283 129.36 303.283 129.314 303.273C128.704 303.19 128.279 302.627 128.362 302.017L141.243 207.926H79.0857C72.9139 207.926 67.195 205.967 62.5383 202.614L37.8938 302.148C37.7656 302.652 37.313 302.987 36.816 302.987C36.7253 302.987 36.6329 302.976 36.5407 302.953C35.9452 302.801 35.5852 302.195 35.7365 301.6L60.6193 201.102C60.2884 200.827 59.9574 200.532 59.6448 200.229L49.7517 199.647L17.5662 301.947C17.4168 302.422 16.978 302.727 16.5049 302.727C16.3943 302.727 16.2819 302.71 16.1708 302.675C15.5844 302.49 15.2586 301.865 15.4431 301.279ZM51.911 193.669C51.8278 193.623 51.7539 193.567 51.68 193.521L51.4416 194.276L51.911 193.669Z" fill="#E6E6E6"/>
</svg>
