<svg width="352" height="411" viewBox="0 0 352 411" fill="none" xmlns="http://www.w3.org/2000/svg">
<g clip-path="url(#clip0_48_286)">
<path d="M340.623 151.484H11.0754C8.13909 151.48 5.32397 150.311 3.24766 148.233C1.17135 146.154 0.00339054 143.336 0 140.397V11.0871C0.00339054 8.14767 1.17135 5.32959 3.24766 3.25109C5.32397 1.17258 8.13909 0.00339412 11.0754 0H340.623C343.559 0.00339412 346.375 1.17258 348.451 3.25109C350.527 5.32959 351.695 8.14767 351.698 11.0871V140.397C351.695 143.336 350.527 146.154 348.451 148.233C346.375 150.311 343.559 151.48 340.623 151.484Z" fill="#F2F2F2"/>
<path d="M263.765 144.413H63.386C48.454 144.396 34.1385 138.45 23.5799 127.881C13.0214 117.311 7.08228 102.98 7.06543 88.0325V63.4574C7.08226 48.5096 13.0214 34.1788 23.5799 23.6091C34.1384 13.0394 48.454 7.09386 63.386 7.0769H288.314C303.246 7.09386 317.562 13.0394 328.12 23.6091C338.679 34.1788 344.618 48.5096 344.635 63.4574C344.611 84.9205 336.083 105.498 320.922 120.674C305.761 135.851 285.206 144.388 263.765 144.413Z" fill="white"/>
<path d="M212.075 44.094H79.6225C78.8649 44.094 78.1384 43.7927 77.6027 43.2565C77.067 42.7203 76.7661 41.993 76.7661 41.2346C76.7661 40.4763 77.067 39.749 77.6027 39.2127C78.1384 38.6765 78.8649 38.3752 79.6225 38.3752H212.075C212.833 38.3752 213.56 38.6765 214.095 39.2127C214.631 39.749 214.932 40.4763 214.932 41.2346C214.932 41.993 214.631 42.7203 214.095 43.2565C213.56 43.7927 212.833 44.094 212.075 44.094Z" fill="#E6E6E6"/>
<path d="M279.126 74.6015H79.6225C78.8649 74.6015 78.1384 74.3003 77.6027 73.7641C77.067 73.2278 76.7661 72.5005 76.7661 71.7422C76.7661 70.9838 77.067 70.2565 77.6027 69.7203C78.1384 69.1841 78.8649 68.8828 79.6225 68.8828H279.126C279.883 68.8828 280.61 69.1841 281.145 69.7203C281.681 70.2565 281.982 70.9838 281.982 71.7422C281.982 72.5005 281.681 73.2278 281.145 73.7641C280.61 74.3003 279.883 74.6015 279.126 74.6015Z" fill="#E6E6E6"/>
<path d="M279.126 105.109H79.6225C78.8649 105.109 78.1384 104.808 77.6027 104.272C77.067 103.735 76.7661 103.008 76.7661 102.25C76.7661 101.491 77.067 100.764 77.6027 100.228C78.1384 99.6916 78.8649 99.3904 79.6225 99.3904H279.126C279.883 99.3904 280.61 99.6916 281.145 100.228C281.681 100.764 281.982 101.491 281.982 102.25C281.982 103.008 281.681 103.735 281.145 104.272C280.61 104.808 279.883 105.109 279.126 105.109Z" fill="#E6E6E6"/>
<path d="M279.126 105.109H79.6225C78.8649 105.109 78.1384 104.808 77.6027 104.272C77.067 103.735 76.7661 103.008 76.7661 102.25C76.7661 101.491 77.067 100.764 77.6027 100.228C78.1384 99.6916 78.8649 99.3904 79.6225 99.3904H279.126C279.883 99.3904 280.61 99.6916 281.145 100.228C281.681 100.764 281.982 101.491 281.982 102.25C281.982 103.008 281.681 103.735 281.145 104.272C280.61 104.808 279.883 105.109 279.126 105.109Z" fill="#E6E6E6"/>
<path d="M198.098 78.103C198.13 78.9643 198.35 79.8082 198.743 80.5751C199.136 81.3421 199.692 82.0136 200.372 82.5422C201.052 83.0707 201.839 83.4436 202.679 83.6346C203.518 83.8255 204.389 83.8299 205.231 83.6473L216.124 101.536L220.76 91.688L209.705 76.2102C209.305 74.8155 208.408 73.6161 207.183 72.8394C205.959 72.0627 204.493 71.7625 203.062 71.9958C201.631 72.2292 200.336 72.9797 199.421 74.1053C198.506 75.2309 198.035 76.6533 198.098 78.103Z" fill="#FFB6B6"/>
<path d="M279.843 129.372L242.304 108.988L230.463 97.8672C230.463 97.8672 225.316 96.4876 227.21 94.8121C229.105 93.1366 223.706 91.5207 223.706 91.5207L217.349 85.5508L208.317 91.9485L210.931 96.0049C210.931 96.0049 210.751 102.72 214.426 101.428C218.101 100.136 217.183 105.706 217.183 105.706L239.117 139.742L279.843 129.372Z" fill="#3F3D56"/>
<path d="M169.031 110.167C189.282 110.167 205.698 93.7334 205.698 73.4613C205.698 53.1892 189.282 36.7555 169.031 36.7555C148.78 36.7555 132.364 53.1892 132.364 73.4613C132.364 93.7334 148.78 110.167 169.031 110.167Z" fill="#00BFA6"/>
<path d="M279.96 396.729H272.335L268.707 367.291H279.96V396.729Z" fill="#FFB6B6"/>
<path d="M283.984 409.953H278.516L277.54 404.785L275.041 409.953H260.54C259.845 409.953 259.168 409.73 258.608 409.318C258.048 408.906 257.634 408.325 257.427 407.661C257.221 406.996 257.231 406.283 257.458 405.625C257.685 404.968 258.115 404.399 258.687 404.004L270.268 395.998V390.774L282.448 391.502L283.984 409.953Z" fill="#2F2E41"/>
<path d="M218.983 396.729H211.358L207.73 367.291H218.983V396.729Z" fill="#FFB6B6"/>
<path d="M223.007 409.953H217.539L216.563 404.785L214.064 409.953H199.563C198.868 409.953 198.191 409.73 197.631 409.318C197.071 408.906 196.657 408.325 196.45 407.661C196.244 406.996 196.254 406.283 196.481 405.625C196.708 404.968 197.138 404.399 197.71 404.004L209.291 395.998V390.774L221.471 391.502L223.007 409.953Z" fill="#2F2E41"/>
<path d="M271.87 174.092H233.389V217.947H271.87V174.092Z" fill="#FFB6B6"/>
<path d="M234.277 195.723L227.765 203.427L216.517 227.133L188.174 294.64L182.18 308.916L187.021 334.155C187.021 334.155 187.805 351.935 187.805 354.846C187.805 360.772 192.756 364.056 192.756 364.056L196.389 382.996L231.613 381.514C231.613 381.514 230.384 360.637 223.007 355.371C215.629 350.105 212.238 322.659 212.238 322.659L208.229 310.482L247.302 264.116L247.554 280.324L247.676 288.168C247.676 288.168 241.954 339.19 248.624 349.092C255.294 358.994 248.76 357.829 248.76 357.829L249.078 378.255L290.814 378.551L281.607 319.745C281.607 319.745 276.931 316.05 279.433 312.335C281.934 308.62 277.008 304.07 277.008 304.07L279.218 258.162C279.218 258.162 276.771 250.233 279.649 249.202C282.526 248.171 280.027 241.352 280.027 241.352L280.454 232.466L271.87 204.909L234.277 195.723Z" fill="#2F2E41"/>
<path d="M272.462 174.092L276.606 161.646L279.566 157.498L280.75 145.645C280.75 113.643 273.619 118.972 273.619 118.972L269.502 107.716L250.557 107.124L238.421 118.68L228.357 122.236L224.416 142.735L231.613 164.609L233.389 176.462C230.001 182.723 230.288 179.762 233.093 184.463L266.542 193.649C278.382 197.797 278.382 187.13 276.008 184.463C273.634 181.796 272.462 174.092 272.462 174.092Z" fill="#3F3D56"/>
<path d="M257.583 103.146C267.282 103.146 275.145 95.2744 275.145 85.5649C275.145 75.8554 267.282 67.9843 257.583 67.9843C247.883 67.9843 240.021 75.8554 240.021 85.5649C240.021 95.2744 247.883 103.146 257.583 103.146Z" fill="#FFB6B6"/>
<path d="M281.028 109.032C281.194 109.311 281.294 109.625 281.322 109.948C281.349 110.272 281.304 110.598 281.188 110.901C281.073 111.205 280.89 111.479 280.655 111.702C280.419 111.925 280.136 112.092 279.826 112.191C277.47 112.973 276.02 115.255 274.327 117.08C272.639 118.899 269.922 120.411 267.767 119.172C265.618 117.939 265.47 114.792 263.671 113.086C261.918 111.426 259.005 111.628 256.945 112.89L256.884 112.928C256.528 113.16 256.112 113.283 255.688 113.281C255.263 113.279 254.849 113.152 254.495 112.917C254.142 112.682 253.865 112.348 253.699 111.957C253.533 111.566 253.485 111.134 253.561 110.716C254.283 106.873 255.005 103.031 255.726 99.1883C253.831 103.758 251.08 107.922 247.621 111.456C246.668 112.556 245.461 113.407 244.105 113.933C242.873 114.324 241.677 113.05 240.481 113.281C243.453 110.679 253.446 94.0027 251.659 82.8552C249.557 83.0923 247.455 83.3293 245.354 83.5664C245.126 82.5707 244.64 81.6528 243.945 80.9055C244.03 81.8745 243.907 82.8504 243.584 83.7679C242.707 83.8686 241.825 83.9634 240.949 84.0642C239.73 84.2005 238.403 84.319 237.356 83.679C235.609 82.6123 235.556 80.0876 236.053 78.0963C237.51 72.3063 241.926 67.4644 247.331 64.928C252.736 62.3974 254.334 68.0334 260.03 66.2318C271.278 62.676 279.898 68.7564 282.935 80.0402C285.486 89.5046 283.633 99.5498 281.028 109.032Z" fill="#2F2E41"/>
<path d="M329.648 410.335H308.144L308.051 410.167C307.777 409.668 307.511 409.139 307.263 408.596C305.048 403.848 304.112 398.419 303.286 393.629L302.664 390.018C302.588 389.581 302.645 389.131 302.826 388.726C303.008 388.321 303.306 387.98 303.683 387.745C304.059 387.511 304.497 387.395 304.94 387.411C305.383 387.427 305.811 387.576 306.169 387.837C309.437 390.217 312.707 392.596 315.977 394.972C317.216 395.874 318.63 396.918 319.985 398.046C320.115 397.41 320.252 396.773 320.389 396.145C320.483 395.711 320.704 395.315 321.025 395.008C321.345 394.701 321.749 394.496 322.187 394.421C322.624 394.345 323.073 394.401 323.478 394.583C323.883 394.765 324.224 395.063 324.458 395.44L326.974 399.487C328.81 402.442 330.429 405.354 330.099 408.495C330.101 408.533 330.098 408.571 330.091 408.609C330.025 409.125 329.902 409.632 329.726 410.121L329.648 410.335Z" fill="#F0F0F0"/>
<path d="M165.698 122.865L143.221 103.863C142.452 103.212 141.973 102.282 141.889 101.278C141.804 100.274 142.121 99.2774 142.769 98.5068L146.906 93.6028C147.557 92.8337 148.485 92.3542 149.488 92.2696C150.491 92.1849 151.487 92.502 152.257 93.1513L174.734 112.153C175.502 112.804 175.981 113.734 176.066 114.738C176.151 115.742 175.834 116.739 175.185 117.509L171.048 122.413C170.398 123.182 169.469 123.662 168.466 123.746C167.463 123.831 166.468 123.514 165.698 122.865Z" fill="#3F3D56"/>
<path d="M144.4 98.9021C144.05 99.3174 143.88 99.8544 143.925 100.396C143.971 100.937 144.229 101.437 144.643 101.788L167.12 120.79C167.535 121.14 168.072 121.311 168.612 121.265C169.153 121.22 169.653 120.961 170.003 120.547L174.14 115.643C174.49 115.228 174.661 114.691 174.615 114.15C174.569 113.609 174.311 113.108 173.897 112.757L151.42 93.7548C151.005 93.4049 150.469 93.2341 149.928 93.2797C149.388 93.3253 148.887 93.5837 148.537 93.9981L144.4 98.9021Z" fill="white"/>
<path d="M157.596 106.289C157.518 106.398 157.415 106.488 157.297 106.551C157.178 106.613 157.046 106.648 156.912 106.651L153.381 106.732C153.267 106.735 153.154 106.715 153.048 106.674C152.943 106.633 152.846 106.571 152.764 106.493C152.682 106.414 152.616 106.32 152.57 106.216C152.524 106.112 152.499 106.001 152.497 105.887C152.494 105.773 152.514 105.66 152.555 105.554C152.596 105.449 152.657 105.352 152.736 105.27C152.814 105.187 152.908 105.122 153.012 105.076C153.116 105.03 153.228 105.005 153.341 105.002L155.651 104.949L153.376 98.9388C153.295 98.7244 153.303 98.4867 153.397 98.278C153.492 98.0692 153.665 97.9064 153.879 97.8252C154.093 97.744 154.33 97.7511 154.539 97.8449C154.748 97.9387 154.911 98.1116 154.992 98.3256L157.701 105.479C157.75 105.609 157.767 105.748 157.751 105.885C157.735 106.023 157.687 106.155 157.609 106.269L157.596 106.289Z" fill="#00BFA6"/>
<path d="M158.049 107.8C158.9 107.925 159.714 108.235 160.433 108.71C161.152 109.184 161.759 109.81 162.209 110.544C162.66 111.279 162.945 112.103 163.043 112.959C163.142 113.815 163.051 114.683 162.779 115.5L179.358 128.285L169.075 131.828L154.907 119.144C153.565 118.594 152.472 117.571 151.834 116.268C151.196 114.965 151.057 113.473 151.444 112.075C151.831 110.677 152.718 109.469 153.935 108.681C155.152 107.893 156.616 107.579 158.049 107.8Z" fill="#FFB6B6"/>
<path d="M244.366 114.121L201.917 140.248C201.917 140.248 184.802 133.909 188.147 130.974C191.492 128.039 180.843 126.055 180.843 126.055L169.08 118.133L162.254 126.074C162.254 126.074 163.498 138.973 165.614 136.74C167.731 134.506 170.894 140.608 170.894 140.608C170.894 140.608 171.828 147.42 177.853 145.706C183.877 143.992 200.041 161.962 200.041 161.962L252.283 142.457L244.366 114.121Z" fill="#3F3D56"/>
<path d="M167.742 88.1855C167.249 88.1855 166.764 88.0708 166.324 87.8505C165.884 87.6301 165.501 87.3101 165.206 86.916L157.431 76.5388C157.182 76.2055 157 75.8261 156.897 75.4224C156.793 75.0187 156.77 74.5986 156.829 74.1861C156.888 73.7736 157.028 73.3767 157.24 73.0182C157.452 72.6596 157.732 72.3464 158.065 72.0963C158.738 71.5914 159.583 71.3746 160.416 71.4937C160.828 71.5526 161.224 71.6922 161.582 71.9046C161.941 72.1169 162.253 72.3977 162.503 72.7311L167.59 79.5196L180.653 59.9037C181.12 59.2034 181.845 58.7173 182.669 58.5522C183.493 58.3872 184.35 58.5567 185.049 59.0236C185.749 59.4904 186.234 60.2163 186.399 61.0416C186.564 61.8669 186.395 62.7239 185.928 63.4242L170.379 86.7724C170.098 87.1947 169.72 87.5433 169.276 87.789C168.833 88.0347 168.336 88.1703 167.83 88.1846C167.8 88.1851 167.771 88.1855 167.742 88.1855Z" fill="white"/>
</g>
<defs>
<clipPath id="clip0_48_286">
<rect width="352" height="411" fill="white"/>
</clipPath>
</defs>
</svg>
