<svg width="353" height="412" viewBox="0 0 353 412" fill="none" xmlns="http://www.w3.org/2000/svg">
<g clip-path="url(#clip0_48_265)">
<path d="M341.415 84.5619H19.7227C15.2765 84.5619 11.6592 80.9346 11.6592 76.476V51.6233C11.6592 47.1648 15.2765 43.5375 19.7227 43.5375H341.415C345.861 43.5375 349.478 47.1648 349.478 51.6233V76.476C349.478 80.9346 345.861 84.5619 341.415 84.5619Z" fill="white" stroke="#BAB7C9" stroke-width="2" stroke-linecap="round" stroke-linejoin="round"/>
<path d="M341.415 237.768H19.7227C15.2765 237.768 11.6592 234.14 11.6592 229.682V204.829C11.6592 200.371 15.2765 196.743 19.7227 196.743H341.415C345.861 196.743 349.478 200.371 349.478 204.829V229.682C349.478 234.14 345.861 237.768 341.415 237.768Z" fill="white" stroke="#BAB7C9" stroke-width="2" stroke-linecap="round" stroke-linejoin="round"/>
<path d="M113.047 347.768H18.7251C14.2789 347.768 10.6616 344.14 10.6616 339.682V314.829C10.6616 310.371 14.2789 306.743 18.7251 306.743H113.047C117.493 306.743 121.111 310.371 121.111 314.829V339.682C121.111 344.14 117.493 347.768 113.047 347.768Z" fill="#00BFA6"/>
<path d="M12.3657 0.777588H82.9202" stroke="#BAB7C9" stroke-width="2" stroke-linecap="round" stroke-linejoin="round"/>
<path d="M12.3657 153.983H143.427" stroke="#BAB7C9" stroke-width="2" stroke-linecap="round" stroke-linejoin="round"/>
<path d="M302.495 367.019L291.4 374.131L301.461 389.912L312.556 382.8L302.495 367.019Z" fill="#F1A1A4"/>
<path d="M267.309 154.879L253.294 159.679L253.074 139.386L265.828 139.243L267.309 154.879Z" fill="#F1A1A4"/>
<path d="M254.71 144.989C262.45 144.989 268.725 138.697 268.725 130.935C268.725 123.173 262.45 116.881 254.71 116.881C246.97 116.881 240.695 123.173 240.695 130.935C240.695 138.697 246.97 144.989 254.71 144.989Z" fill="#F1A1A4"/>
<path d="M258.545 129.502C256.204 129.456 254.632 127.102 253.695 124.936C252.757 122.783 251.793 120.292 249.613 119.417C247.828 118.703 244.75 123.684 243.327 122.387C241.846 121.032 243.198 113.95 244.743 112.672C246.289 111.394 248.411 111.122 250.403 110.999C255.286 110.72 260.194 111.057 264.993 112.01C267.956 112.594 271.021 113.495 273.175 115.616C275.911 118.308 276.648 122.407 276.881 126.239C277.127 130.163 276.939 134.275 275.076 137.738C273.207 141.195 269.255 143.77 265.42 142.94C265.013 140.858 265.375 138.724 265.504 136.597C265.634 134.483 265.446 132.2 264.14 130.526C262.833 128.853 260.078 128.218 258.597 129.729" fill="#2F2E43"/>
<path d="M275.839 134.178C277.23 133.134 278.892 132.252 280.619 132.446C282.488 132.647 284.079 134.178 284.577 135.994C285.075 137.81 284.558 139.82 283.426 141.325C282.294 142.829 280.593 143.828 278.782 144.341C277.734 144.639 276.59 144.762 275.581 144.341C274.1 143.718 273.285 141.844 273.847 140.333" fill="#2F2E43"/>
<path d="M223.685 266.949C222.806 271.573 224.558 275.775 227.611 276.327C230.657 276.878 233.846 273.57 234.732 268.946C235.113 267.104 235.029 265.198 234.486 263.388L245.267 190.906L230.741 188.338L225.962 261.858C224.791 263.362 224.009 265.107 223.685 266.968L223.685 266.949Z" fill="#F1A1A4"/>
<path d="M253.035 150.365L243.14 150.476C236.155 151.611 234.299 155.379 232.792 162.305C230.483 172.87 227.533 186.95 228.154 187.145C229.144 187.469 246.07 195.226 254.639 193.306L253.042 150.366L253.035 150.365Z" fill="#00BFA6"/>
<path d="M265.188 380.738L252.021 380.886L252.23 399.615L265.397 399.467L265.188 380.738Z" fill="#F1A1A4"/>
<path d="M239.498 411.102C238.107 411.121 236.885 411.102 235.954 411.024C232.448 410.745 229.092 408.19 227.391 406.698C226.628 406.03 226.375 404.94 226.757 404.007C227.029 403.339 227.585 402.826 228.283 402.612L237.499 399.862L252.355 389.57L252.524 389.868C252.588 389.978 254.089 392.618 254.6 394.408C254.794 395.089 254.755 395.653 254.47 396.094C254.276 396.399 254.005 396.581 253.785 396.691C254.056 396.97 254.91 397.54 257.536 397.93C261.352 398.5 262.122 394.518 262.147 394.35L262.173 394.213L262.283 394.136C264.088 392.936 265.194 392.397 265.582 392.508C265.827 392.573 266.222 392.696 267.425 403.488C267.535 403.825 268.324 406.302 267.832 408.689C267.302 411.283 256.016 410.511 253.765 410.336C253.701 410.343 245.267 411.043 239.485 411.102H239.504L239.498 411.102Z" fill="#2F2E43"/>
<path d="M288.115 407.989C286.569 408.008 285.146 407.833 284.131 407.664C283.135 407.496 282.346 406.711 282.178 405.712C282.048 404.992 282.262 404.272 282.734 403.728L289.098 396.503L296.264 379.887L296.568 380.049C296.678 380.108 299.343 381.554 300.727 382.799C301.251 383.272 301.516 383.772 301.516 384.304C301.516 384.667 301.38 384.965 301.244 385.166C301.626 385.257 302.648 385.283 305.079 384.226C308.617 382.682 307.168 378.895 307.104 378.746L307.052 378.616L307.11 378.499C308.009 376.528 308.669 375.477 309.051 375.36C309.296 375.295 309.691 375.172 316.411 383.694C316.682 383.921 318.661 385.601 319.502 387.884C320.414 390.368 310.448 395.699 308.43 396.743C308.371 396.795 297.952 404.558 293.671 406.782C291.97 407.664 289.945 407.956 288.102 407.969L288.122 407.989L288.115 407.989Z" fill="#2F2E43"/>
<path d="M273.123 223.963L236.258 224.371L233.296 258.796L249.342 385.704L268.163 385.49L259.826 312.185L291.09 378.11L307.686 366.177L283.161 304.577C283.161 304.577 291.084 250.592 284.241 237.245C277.405 223.898 273.13 223.943 273.13 223.943V223.963L273.123 223.963Z" fill="#2F2E43"/>
<path d="M291.478 225.857L232.927 226.512L249.652 150.411L275.167 150.119L291.478 225.857Z" fill="#00BFA6"/>
<path d="M297.196 266.132C298.179 270.743 296.516 274.978 293.483 275.594C290.443 276.217 287.184 272.98 286.207 268.369C285.787 266.534 285.826 264.627 286.324 262.805L273.932 190.576L288.393 187.683L294.803 261.086C296.005 262.565 296.827 264.296 297.196 266.145V266.132Z" fill="#F1A1A4"/>
<path d="M265.278 150.229L275.173 150.119C282.178 151.105 284.118 154.828 285.787 161.722C288.328 172.235 291.582 186.237 290.974 186.451C289.984 186.788 273.246 194.921 264.638 193.196L265.291 150.229L265.278 150.229Z" fill="#00BFA6"/>
</g>
<defs>
<clipPath id="clip0_48_265">
<rect width="352" height="412" fill="white" transform="translate(0.5)"/>
</clipPath>
</defs>
</svg>
