<svg width="254" height="254" viewBox="0 0 254 254" fill="none" xmlns="http://www.w3.org/2000/svg">
<g clip-path="url(#clip0_147_262)">
<path d="M61.1402 89.0058C60.8896 90.5369 60.9757 92.1047 61.3922 93.5987C61.8088 95.0927 62.5457 96.4766 63.5511 97.6529C64.5566 98.8293 65.806 99.7694 67.2114 100.407C68.6168 101.045 70.1441 101.365 71.6856 101.344L97.5174 177L114 165.598L82.1815 89.8243C81.9753 87.22 80.8273 84.7823 78.9548 82.9731C77.0824 81.1639 74.6156 80.1089 72.022 80.008C69.4284 79.9071 66.8881 80.7673 64.8826 82.4257C62.877 84.084 61.5454 86.4253 61.1402 89.0058Z" fill="#A0616A"/>
<path d="M196 114.436C184.52 127.624 156.214 150.865 132.895 166.869C127.855 170.328 123.045 173.443 118.689 176.051C115.748 177.812 113.012 179.336 110.549 180.579C108.896 181.411 107.091 181.888 105.247 181.983C103.403 182.077 101.559 181.786 99.8316 181.127C98.104 180.469 96.5296 179.457 95.2072 178.156C93.8848 176.854 92.8427 175.291 92.1463 173.564L76 134.121L81.5865 130.382L95.3612 121.156L98.4898 119.066L111.407 150.13L125.028 139.09L133.485 132.235L172.034 100.997L175.36 100L183.117 107.644L188.602 113.053L193.762 113.957C194.534 114.093 195.281 114.252 196 114.436Z" fill="#00BFA6"/>
<path d="M215.978 156.336L214.523 256L97 252.636L115.768 211.312C115.633 209.986 124.006 200.678 123.958 199.299C123.813 195.258 126.838 191.515 127.33 187.286C128.332 178.565 122.594 145.63 125.239 138.826C126.366 135.787 127.809 132.876 129.546 130.138C131.049 127.87 132.59 126.342 134.065 125.789L138.41 115.689L142.264 109.923L172.502 100.99L175.845 100L183.644 107.592L189.16 112.964L194.348 113.863C195.124 113.997 195.876 114.156 196.598 114.339C200.078 115.139 203.322 116.742 206.069 119.019C215.126 126.693 216.181 141.128 215.978 156.336Z" fill="#00BFA6"/>
<path d="M120.634 106.256L120.608 106.258C119.224 106.387 117.845 105.961 116.775 105.072C115.705 104.183 115.032 102.906 114.903 101.52L112.174 72.3646C111.68 67.1416 112.24 61.8725 113.821 56.8706C116.921 47.1082 123.664 38.9196 132.646 34.0113C137.284 31.4836 142.385 29.922 147.642 29.4207C169.148 27.3697 177.008 31.8533 190.293 64.6866C203.578 97.5199 193.026 93.8864 193.026 93.8864C193.093 94.589 193.017 95.2979 192.804 95.9707C192.386 97.2834 191.477 98.3836 190.268 99.0415C189.647 99.3783 188.965 99.5868 188.263 99.6546C162.837 106.124 137.182 112.934 120.63 106.256L120.634 106.256Z" fill="#2F2E41"/>
<path d="M168.016 56.6692C171.233 61.4278 172.967 67.0328 173 72.7763C173.032 78.5198 171.362 84.1441 168.2 88.9389C165.037 93.7337 160.525 97.484 155.232 99.716C149.94 101.948 144.104 102.562 138.463 101.48C134.729 100.775 131.172 99.3372 127.997 97.2484C124.823 95.1596 122.094 92.4617 119.97 89.311C116.76 84.554 115.031 78.9532 115 73.2148C114.97 67.4764 116.639 61.8573 119.797 57.0661C122.956 52.2749 127.462 48.526 132.748 46.2922C138.035 44.0583 143.864 43.4395 149.501 44.5137C153.239 45.2138 156.8 46.6488 159.978 48.7356C163.156 50.8224 165.889 53.5194 168.017 56.6703L168.016 56.6692Z" fill="#9E616A"/>
<path d="M103.138 75.432C102.746 71.3301 103.191 67.1921 104.445 63.2639C104.736 53.6545 107.55 44.9507 119.378 45.3161C123.034 43.3452 127.053 42.1232 131.196 41.7228L137.041 41.1508C137.107 41.1444 137.172 41.1381 137.238 41.1321C141.288 40.7586 145.372 41.1792 149.257 42.3697C153.143 43.5603 156.754 45.4975 159.884 48.0708C163.014 50.6441 165.602 53.8031 167.5 57.3674C169.397 60.9317 170.568 64.8315 170.945 68.8441L171 69.424L158.634 70.622L153.311 59.3363L153.574 71.1145L147.187 71.7356L144.503 66.0417L144.634 71.9802C135.151 80.2561 120.77 80.6899 103.198 76.0124L103.138 75.432Z" fill="#2F2E41"/>
<path d="M142.59 103.153C142.486 104.12 142.652 105.097 143.071 105.973C143.281 106.422 143.554 106.839 143.879 107.211C144.158 107.529 144.473 107.812 144.817 108.055C145.838 108.771 147.078 109.097 148.315 108.975C148.392 108.967 148.469 108.957 148.546 108.946C148.622 108.935 148.699 108.923 148.775 108.908C148.853 108.894 148.929 108.878 149.005 108.86C149.082 108.842 149.158 108.822 149.235 108.801L153.533 107.586L158.35 94.0409L159.454 105.927L179 100.439L174.314 50L141 53.3104L141.914 54.1976C144.949 57.1773 147.111 60.9439 148.161 65.0829C149.203 69.277 149.524 73.6202 149.111 77.9239C148.726 82.2756 147.927 86.5799 146.726 90.7776C145.68 94.4946 144.423 98.1478 142.96 101.719C142.771 102.177 142.647 102.66 142.59 103.153Z" fill="#2F2E41"/>
<path d="M147.446 261.049C146.872 261.049 146.304 260.923 145.786 260.68L53.2217 263C52.5114 262.67 51.9199 262.135 51.5253 261.468C51.1306 260.8 50.9514 260.03 51.0113 259.261C51.0712 258.491 51.3674 257.757 51.8608 257.156C52.3542 256.555 53.0215 256.115 53.7747 255.895L114.333 238.159C114.96 237.975 115.624 237.95 116.263 238.086L209.936 249.301C210.765 249.477 211.513 249.914 212.065 250.547C212.617 251.179 212.943 251.972 212.993 252.803C213.044 253.635 212.816 254.46 212.344 255.152C211.872 255.844 211.183 256.366 210.381 256.638L148.714 260.839C148.306 260.978 147.878 261.049 147.446 261.049Z" fill="#3F3D56"/>
<path d="M150.634 254.847C150.216 254.847 149.804 254.741 149.439 254.541L74.2451 258C73.8181 257.764 73.4731 257.407 73.2551 256.976C73.037 256.544 72.9561 256.058 73.0227 255.58C73.0893 255.102 73.3004 254.655 73.6285 254.298C73.9566 253.94 74.3866 253.688 74.8623 253.574L102.084 247.067C102.509 246.966 102.954 246.979 103.372 247.105L173.276 247.022C173.773 247.172 174.209 247.475 174.52 247.886C174.83 248.298 174.998 248.796 175 249.309C175.002 249.821 174.837 250.321 174.53 250.735C174.222 251.148 173.789 251.454 173.292 251.608L151.361 254.737C151.126 254.81 150.88 254.847 150.634 254.847Z" fill="#2F2E41"/>
<path d="M142.935 250.336C144.236 251.162 145.705 251.698 147.239 251.904C148.773 252.11 150.334 251.983 151.812 251.531C153.29 251.079 154.65 250.313 155.796 249.287C156.941 248.262 157.844 247.001 158.441 245.594L238 251.75L234.154 232.336L152.095 231.566C149.629 230.734 146.939 230.822 144.535 231.813C142.131 232.804 140.18 234.63 139.051 236.943C137.922 239.257 137.694 241.899 138.41 244.367C139.125 246.835 140.736 248.959 142.935 250.336Z" fill="#A0616A"/>
<path d="M189.412 122.664C189.412 122.664 201.449 113.048 215.892 130.356C225.633 142.029 244.423 212.592 245.981 241.832C246.08 243.683 245.794 245.533 245.143 247.268C244.492 249.003 243.489 250.585 242.197 251.915C240.905 253.245 239.351 254.294 237.635 254.996C235.918 255.698 234.074 256.039 232.219 255.996L189.749 255.258L185 228.599L218.53 228.995L189.412 122.664Z" fill="#00BFA6"/>
<path d="M142.188 260.904C140.727 260.903 139.281 260.613 137.935 260.05L51.791 262C49.5175 261.059 47.6303 259.385 46.4344 257.249C45.2386 255.112 44.804 252.637 45.2009 250.225L42 175.162C42.4245 172.481 43.8468 170.055 45.986 168.364C48.1253 166.672 50.826 165.838 53.5548 166.026L133.53 169.317C135.065 169.417 136.562 169.836 137.923 170.547C139.285 171.258 140.48 172.244 141.433 173.443C142.385 174.642 143.073 176.026 143.451 177.505C143.83 178.985 143.891 180.527 143.63 182.031L153 251.853C152.559 254.383 151.234 256.677 149.256 258.333C147.278 259.989 144.776 260.899 142.188 260.904Z" fill="#3F3D56"/>
<path d="M76.4039 37.0996L40.7445 37C39.7887 36.9989 38.8714 37.3731 38.1937 38.0407C37.516 38.7083 37.1332 39.6148 37.1293 40.5614L37 87.3248C36.998 88.2704 37.3751 89.1782 38.0485 89.8486C38.7219 90.5191 39.6365 90.8974 40.5913 90.9004L60.3723 90.9573L76.2554 91C77.211 91.0017 78.1282 90.6275 78.8053 89.9596C79.4823 89.2918 79.8639 88.385 79.8659 87.4386L79.8755 84.6738L80 40.68C80.0019 39.7331 79.6243 38.8242 78.95 38.1529C78.2757 37.4815 77.36 37.1027 76.4039 37.0996Z" fill="#E6E6E6"/>
<path d="M74.5874 40.0864L43.5194 40C42.6122 39.9989 41.7415 40.3536 41.0982 40.9864C40.4549 41.6193 40.0914 42.4786 40.0874 43.3762L40 73.8241C39.9939 77.8227 41.5912 81.6604 44.4414 84.4955C47.2917 87.3306 51.1621 88.9315 55.2039 88.9472L61.1068 88.9616L74.4515 89C75.3589 89.0019 76.2301 88.6475 76.8736 88.0145C77.5171 87.3814 77.8803 86.5216 77.8835 85.6238L77.8932 82.5598L78 43.4818C78.002 42.584 77.6437 41.7222 77.0038 41.0856C76.364 40.4489 75.4949 40.0896 74.5874 40.0864Z" fill="white"/>
<path d="M70.5531 60H46.4469C46.2569 60 46.0687 60.0388 45.8932 60.1142C45.7176 60.1896 45.5581 60.3001 45.4238 60.4393C45.2894 60.5786 45.1828 60.744 45.1101 60.926C45.0374 61.108 45 61.303 45 61.5C45 61.697 45.0374 61.892 45.1101 62.074C45.1828 62.256 45.2894 62.4214 45.4238 62.5607C45.5581 62.7 45.7176 62.8104 45.8932 62.8858C46.0687 62.9612 46.2569 63 46.4469 63H70.5531C70.9369 63 71.3049 62.842 71.5762 62.5607C71.8476 62.2794 72 61.8978 72 61.5C72 61.1022 71.8476 60.7206 71.5762 60.4393C71.3049 60.158 70.9369 60 70.5531 60Z" fill="#00BFA6"/>
<path d="M70.5531 73H46.4469C46.0631 73 45.6951 73.158 45.4238 73.4393C45.1524 73.7206 45 74.1022 45 74.5C45 74.8978 45.1524 75.2794 45.4238 75.5607C45.6951 75.842 46.0631 76 46.4469 76H70.5531C70.9369 76 71.3049 75.842 71.5762 75.5607C71.8476 75.2794 72 74.8978 72 74.5C72 74.1022 71.8476 73.7206 71.5762 73.4393C71.3049 73.158 70.9369 73 70.5531 73Z" fill="#00BFA6"/>
<path d="M70.5553 67H46.4447C46.0615 67 45.6941 67.158 45.4231 67.4393C45.1522 67.7206 45 68.1022 45 68.5C45 68.8978 45.1522 69.2794 45.4231 69.5607C45.6941 69.842 46.0615 70 46.4447 70H70.5553C70.9385 70 71.3059 69.842 71.5769 69.5607C71.8478 69.2794 72 68.8978 72 68.5C72 68.1022 71.8478 67.7206 71.5769 67.4393C71.3059 67.158 70.9385 67 70.5553 67Z" fill="#00BFA6"/>
<path d="M66.5 58C64.8189 58 63.1755 57.5015 61.7777 56.5675C60.3798 55.6335 59.2904 54.306 58.647 52.7528C58.0037 51.1996 57.8354 49.4906 58.1633 47.8417C58.4913 46.1929 59.3008 44.6783 60.4896 43.4896C61.6783 42.3009 63.1929 41.4913 64.8417 41.1633C66.4906 40.8354 68.1996 41.0037 69.7528 41.647C71.306 42.2904 72.6335 43.3798 73.5675 44.7777C74.5015 46.1755 75 47.8189 75 49.5C74.9974 51.7536 74.1011 53.9141 72.5076 55.5076C70.9141 57.1011 68.7536 57.9974 66.5 58ZM66.5 41.5907C64.9357 41.5907 63.4065 42.0546 62.1058 42.9236C60.8051 43.7927 59.7914 45.028 59.1927 46.4732C58.5941 47.9185 58.4375 49.5088 58.7426 51.043C59.0478 52.5773 59.8011 53.9866 60.9072 55.0927C62.0134 56.1989 63.4227 56.9522 64.9569 57.2573C66.4912 57.5625 68.0815 57.4059 69.5267 56.8073C70.972 56.2086 72.2072 55.1949 73.0763 53.8942C73.9454 52.5935 74.4093 51.0643 74.4093 49.5C74.4069 47.4031 73.5728 45.3927 72.0901 43.9099C70.6073 42.4272 68.5969 41.5931 66.5 41.5907Z" fill="#00BFA6"/>
<path d="M69.9897 52.2454C69.3442 49.3533 67.9999 46.6128 66.0453 44.2044C66.0012 44.1419 65.9394 44.0904 65.8657 44.0546C65.7921 44.0188 65.7091 44 65.6247 44C65.5404 44 65.4574 44.0188 65.3838 44.0546C65.3101 44.0904 65.2483 44.1419 65.2042 44.2044C63.5019 46.7884 62.4138 49.6424 62.0042 52.5977C61.9285 53.1365 62.9032 53.1317 62.9783 52.5977C63.1151 51.64 63.3285 50.6916 63.6168 49.7596C63.6541 49.7532 63.6906 49.7435 63.7256 49.7307C65.0209 49.1663 66.4841 48.9595 67.9188 49.1381C67.9313 49.1397 67.9433 49.1373 67.9558 49.1384C68.4296 50.2198 68.7958 51.3345 69.0504 52.4701C69.1692 53.0037 70.1082 52.7778 69.9897 52.2454ZM63.9674 48.7229C64.4145 47.5191 64.9837 46.3521 65.6683 45.2356C66.393 46.1964 67.0222 47.2089 67.5492 48.2622C66.3306 48.1827 65.107 48.3401 63.9674 48.7229Z" fill="#00BFA6"/>
</g>
<defs>
<clipPath id="clip0_147_262">
<rect width="254" height="254" fill="white"/>
</clipPath>
</defs>
</svg>
