<svg width="211" height="254" viewBox="0 0 211 254" fill="none" xmlns="http://www.w3.org/2000/svg">
<g clip-path="url(#clip0_147_333)">
<path d="M1.50852 121.485C2.2838 122.778 3.33355 123.887 4.58382 124.731C5.83409 125.576 7.25447 126.136 8.74491 126.373C10.2353 126.609 11.7596 126.517 13.2103 126.101C14.661 125.685 16.0028 124.957 17.1413 123.967L48.9631 142.204L47.7771 123.193L17.7404 108.789C15.9494 106.989 13.5596 105.907 11.0236 105.749C8.48773 105.591 5.98198 106.368 3.98118 107.933C1.98039 109.498 0.623578 111.742 0.16785 114.239C-0.287877 116.737 0.189142 119.315 1.50852 121.485Z" fill="#FFB8B8"/>
<path d="M93.6356 194.54C84.1963 207.742 84.534 229.828 87.1675 254H131.797L133.738 249.476L136.325 254H178.368C178.368 254 175.134 192.601 169.312 190.663C163.491 188.724 93.6356 194.54 93.6356 194.54Z" fill="#2F2E41"/>
<path d="M131.797 56.615C144.3 56.615 154.436 46.4874 154.436 33.9945C154.436 21.5015 144.3 11.374 131.797 11.374C119.295 11.374 109.159 21.5015 109.159 33.9945C109.159 46.4874 119.295 56.615 131.797 56.615Z" fill="#FFB8B8"/>
<path d="M148.159 62.4838L152.586 70.9623L183.207 84.6016L175.158 162.433L171.77 170.492L173.601 177.492L169.188 182.657C173.617 186.662 174.18 190.854 171.77 195.191L157.67 198.418C157.67 198.418 79.2663 205.384 85.8738 193.248C93.0935 179.987 94.932 140.823 78.9939 119.895C65.4628 102.127 75.8511 79.0722 75.8511 79.0722L107.947 69.4878L119.753 62.4838L148.159 62.4838Z" fill="#3F3D56"/>
<path d="M141.848 0.858954C141.954 0.634046 142.125 0.446044 142.34 0.319092C142.554 0.192141 142.801 0.132034 143.049 0.146494C132.685 -0.472977 121.768 0.734054 113.098 6.44096C110.997 7.82356 109.017 9.47268 106.731 10.4756C106.623 10.5241 106.529 10.5996 106.459 10.6948C106.389 10.79 106.345 10.9017 106.331 11.0191C106.317 11.1364 106.333 11.2554 106.379 11.3645C106.424 11.4736 106.497 11.569 106.591 11.6416L106.842 11.8383C106.941 11.916 107.017 12.0192 107.061 12.1369C107.105 12.2546 107.117 12.3822 107.094 12.5059C107.07 12.6295 107.014 12.7445 106.93 12.8382C106.846 12.932 106.738 13.001 106.618 13.0376C106.492 13.0759 106.38 13.1491 106.295 13.2488C106.21 13.3485 106.155 13.4705 106.137 13.6003C106.118 13.7302 106.138 13.8625 106.192 13.9818C106.247 14.101 106.334 14.2022 106.445 14.2733L108.369 15.5159C108.466 15.5774 108.545 15.6622 108.601 15.7625C108.657 15.8629 108.686 15.9756 108.687 16.0903C108.687 16.205 108.659 16.318 108.605 16.419C108.55 16.5199 108.471 16.6056 108.375 16.6681C108.212 16.7687 108.041 16.8554 107.863 16.9274C107.753 16.9688 107.655 17.038 107.579 17.1282C107.503 17.2185 107.452 17.3268 107.43 17.4426C107.408 17.5585 107.416 17.678 107.454 17.7897C107.492 17.9014 107.558 18.0014 107.646 18.0803C108.479 18.8214 109.118 19.7549 109.507 20.7995C110.148 22.4656 110.264 24.2802 110.372 26.062C111.035 23.491 113.843 21.9776 116.495 21.8239C119.148 21.6701 121.735 22.5446 124.316 23.1732C129.938 24.5384 135.778 24.7629 141.489 23.8333C139.549 27.7219 141.185 32.3601 142.831 36.3814L148.16 34.0994C155.477 29.9718 150.38 47.4319 147.644 49.8288C153.23 51.7639 167.851 30.2864 163.147 22.1394C160.701 17.9015 162.438 12.4356 157.627 8.41627C155.27 5.93644 150.563 7.03863 148.16 4.9776C147.214 4.16641 148.655 1.99619 147.355 1.52323C146.924 1.36614 141.919 0.700627 141.848 0.858954Z" fill="#2F2E41"/>
<path d="M103.502 71.6774C99.3478 90.1052 88.6934 133.132 77.8841 142.13C77.1986 142.777 76.3766 143.262 75.4787 143.549C37.4837 152.798 25.3093 129.206 25.3093 129.206C25.3093 129.206 35.4915 124.248 35.7498 114.556L56.2838 120.923L74.1838 80.672L76.8179 78.2169L76.8326 78.2022L103.502 71.6774Z" fill="#3F3D56"/>
<path d="M184.513 241.849C185.601 240.804 186.447 239.533 186.99 238.127C187.533 236.72 187.762 235.211 187.658 233.707C187.555 232.202 187.123 230.739 186.392 229.419C185.661 228.1 184.65 226.956 183.429 226.07L194.081 190.994L175.805 196.411L168.492 228.889C167.137 231.037 166.618 233.607 167.033 236.112C167.447 238.617 168.767 240.882 170.742 242.48C172.717 244.077 175.209 244.895 177.748 244.779C180.286 244.663 182.693 243.62 184.513 241.849Z" fill="#FFB8B8"/>
<path d="M174.765 82.6393L183.207 84.6016C183.207 84.6016 218.101 152.44 209.692 165.366C201.284 178.292 190.983 221.086 190.983 221.086C190.983 221.086 175.747 218.06 169.926 210.304L180.586 159.549L169.59 116.893L174.765 82.6393Z" fill="#3F3D56"/>
<path d="M14.6016 183.377L14.9047 74.1193C14.9134 71.9079 15.7995 69.7903 17.3688 68.2309C18.938 66.6716 21.0622 65.7979 23.2753 65.8015L105.854 66.0303C108.067 66.0389 110.186 66.9244 111.747 68.4924C113.308 70.0604 114.182 72.1829 114.178 74.3943L113.875 183.652C113.866 185.863 112.98 187.981 111.411 189.54C109.842 191.1 107.718 191.973 105.505 191.97L22.9259 191.741C20.7128 191.732 18.5935 190.847 17.0329 189.279C15.4723 187.711 14.5979 185.588 14.6016 183.377Z" fill="#E6E6E6"/>
<path d="M21.0276 150.394L21.2225 80.1534C21.2306 78.0823 22.0605 76.0991 23.5301 74.6387C24.9998 73.1783 26.9892 72.3601 29.0618 72.3635L100.031 72.5601C102.104 72.5682 104.089 73.3974 105.55 74.8659C107.012 76.3344 107.831 78.3222 107.828 80.3933L107.558 177.618C107.55 179.689 106.72 181.672 105.25 183.132C103.78 184.593 101.791 185.411 99.7182 185.408L55.7541 185.286C46.5217 185.25 37.6806 181.556 31.1704 175.015C24.6602 168.474 21.0125 159.619 21.0276 150.394Z" fill="white"/>
<path d="M91.8992 103.217H36.5612C35.6807 103.217 34.8361 102.868 34.2135 102.246C33.5908 101.624 33.241 100.78 33.241 99.8998C33.241 99.0199 33.5908 98.176 34.2135 97.5538C34.8361 96.9316 35.6807 96.5821 36.5612 96.5821H91.8992C92.7798 96.5821 93.6243 96.9316 94.247 97.5538C94.8697 98.176 95.2195 99.0199 95.2195 99.8998C95.2195 100.78 94.8697 101.624 94.247 102.246C93.6243 102.868 92.7798 103.217 91.8992 103.217Z" fill="#00BFA6"/>
<path d="M48.7356 87.9193H36.5612C35.6807 87.9193 34.8361 87.5697 34.2135 86.9476C33.5908 86.3254 33.241 85.4815 33.241 84.6016C33.241 83.7217 33.5908 82.8778 34.2135 82.2557C34.8361 81.6335 35.6807 81.2839 36.5612 81.2839H48.7356C49.6162 81.2839 50.4607 81.6335 51.0834 82.2557C51.7061 82.8778 52.0559 83.7217 52.0559 84.6016C52.0559 85.4815 51.7061 86.3254 51.0834 86.9476C50.4607 87.5697 49.6162 87.9193 48.7356 87.9193Z" fill="#00BFA6"/>
<path d="M91.8992 118.516H36.5612C35.6807 118.516 34.8361 118.166 34.2135 117.544C33.5908 116.922 33.241 116.078 33.241 115.198C33.241 114.318 33.5908 113.474 34.2135 112.852C34.8361 112.23 35.6807 111.88 36.5612 111.88H91.8992C92.7798 111.88 93.6243 112.23 94.247 112.852C94.8697 113.474 95.2195 114.318 95.2195 115.198C95.2195 116.078 94.8697 116.922 94.247 117.544C93.6243 118.166 92.7798 118.516 91.8992 118.516Z" fill="#00BFA6"/>
<path d="M91.8992 133.814H36.5612C35.6807 133.814 34.8361 133.464 34.2135 132.842C33.5908 132.22 33.241 131.376 33.241 130.496C33.241 129.616 33.5908 128.772 34.2135 128.15C34.8361 127.528 35.6807 127.178 36.5612 127.178H91.8992C92.7798 127.178 93.6243 127.528 94.247 128.15C94.8697 128.772 95.2195 129.616 95.2195 130.496C95.2195 131.376 94.8697 132.22 94.247 132.842C93.6243 133.464 92.7798 133.814 91.8992 133.814Z" fill="#00BFA6"/>
<path d="M87.4216 174.124C94.718 174.124 100.633 168.213 100.633 160.923C100.633 153.632 94.718 147.722 87.4216 147.722C80.1251 147.722 74.2102 153.632 74.2102 160.923C74.2102 168.213 80.1251 174.124 87.4216 174.124Z" fill="#00BFA6"/>
<path d="M85.6192 167.793C85.3911 167.793 85.1661 167.74 84.962 167.638C84.758 167.536 84.5805 167.388 84.4437 167.206L80.8394 162.404C80.7233 162.249 80.6388 162.074 80.5907 161.887C80.5426 161.7 80.5319 161.505 80.5591 161.314C80.5863 161.123 80.6509 160.94 80.7493 160.773C80.8476 160.607 80.9778 160.462 81.1323 160.346C81.2868 160.231 81.4626 160.146 81.6497 160.099C81.8369 160.051 82.0316 160.04 82.2228 160.068C82.4139 160.095 82.5978 160.16 82.7639 160.258C82.93 160.357 83.075 160.487 83.1907 160.642L85.5488 163.783L91.6051 154.706C91.7119 154.545 91.8494 154.406 92.0098 154.298C92.1702 154.19 92.3504 154.115 92.5399 154.077C92.7295 154.039 92.9248 154.038 93.1145 154.076C93.3042 154.113 93.4847 154.188 93.6456 154.295C93.8065 154.402 93.9447 154.54 94.0521 154.7C94.1596 154.861 94.2343 155.041 94.2719 155.231C94.3096 155.42 94.3094 155.615 94.2714 155.805C94.2335 155.994 94.1584 156.174 94.0506 156.335L86.8421 167.139C86.7117 167.335 86.5364 167.496 86.3307 167.61C86.125 167.723 85.8951 167.786 85.6601 167.793C85.6465 167.793 85.6328 167.793 85.6192 167.793Z" fill="white"/>
<path d="M59.2499 40.3661C62.7136 40.3661 65.5215 37.5604 65.5215 34.0993C65.5215 30.6383 62.7136 27.8326 59.2499 27.8326C55.7862 27.8326 52.9783 30.6383 52.9783 34.0993C52.9783 37.5604 55.7862 40.3661 59.2499 40.3661Z" fill="#F2F2F2"/>
<path d="M36.3769 220.626C39.8406 220.626 42.6485 217.82 42.6485 214.359C42.6485 210.898 39.8406 208.093 36.3769 208.093C32.9131 208.093 30.1052 210.898 30.1052 214.359C30.1052 217.82 32.9131 220.626 36.3769 220.626Z" fill="#F2F2F2"/>
<path d="M180.624 64.6956C184.088 64.6956 186.896 61.8899 186.896 58.4289C186.896 54.9679 184.088 52.1622 180.624 52.1622C177.161 52.1622 174.353 54.9679 174.353 58.4289C174.353 61.8899 177.161 64.6956 180.624 64.6956Z" fill="#F2F2F2"/>
</g>
<defs>
<clipPath id="clip0_147_333">
<rect width="211" height="254" fill="white"/>
</clipPath>
</defs>
</svg>
